<svg width="28" height="29" viewBox="0 0 28 29" fill="none" xmlns="http://www.w3.org/2000/svg">
<path d="M4.66669 9.83337H23.3334M4.66669 9.83337V20.1003C4.66669 21.4071 4.66669 22.0601 4.92101 22.5592C5.14471 22.9983 5.50141 23.3556 5.94045 23.5793C6.43909 23.8334 7.09218 23.8334 8.39642 23.8334H19.6036C20.9079 23.8334 21.56 23.8334 22.0586 23.5793C22.4977 23.3556 22.8556 22.9983 23.0793 22.5592C23.3334 22.0606 23.3334 21.4084 23.3334 20.1042V9.83337M4.66669 9.83337V8.90027C4.66669 7.59348 4.66669 6.9396 4.92101 6.44047C5.14471 6.00143 5.50141 5.64473 5.94045 5.42103C6.43958 5.16671 7.09346 5.16671 8.40025 5.16671H9.33335M23.3334 9.83337V8.89644C23.3334 7.5922 23.3334 6.93911 23.0793 6.44047C22.8556 6.00143 22.4977 5.64473 22.0586 5.42103C21.5595 5.16671 20.907 5.16671 19.6002 5.16671H18.6667M9.33335 5.16671H18.6667M9.33335 5.16671V2.83337M18.6667 5.16671V2.83337M17.5 14.5L12.8334 19.1667L10.5 16.8334" stroke="black" stroke-linecap="round" stroke-linejoin="round"/>
</svg>
