<svg width="50" height="50" viewBox="0 0 50 50" fill="none" xmlns="http://www.w3.org/2000/svg">
<path d="M11.8111 43.6031L20.2708 32.6615L24.1405 37.9261L16.6818 48.043C13.8253 51.9145 8.53953 47.8347 11.8111 43.6031ZM21.6909 18.6862C22.4966 15.8825 22.1263 13.4867 19.0989 9.92777L11.7012 0.435845C10.6514 -0.879222 8.17738 1.05215 9.21093 2.64499L15.1274 10.4182C16.2464 11.8678 14.1671 13.7862 13.0115 12.2932L6.89154 4.25518C5.75219 2.86199 3.39617 4.70222 4.58842 6.29506C6.31373 8.50854 8.98306 12.1239 10.7084 14.3374C11.9047 15.6351 10.0858 17.5578 8.90575 15.9389L2.83057 7.953C1.93943 6.92004 0.482691 7.56238 0.0961255 8.76895C-0.318924 10.058 0.702423 10.9998 1.39824 11.9546L8.17738 21.2946C10.2811 23.8944 12.6331 25.4352 15.3675 24.5628C15.7866 24.4282 16.2993 24.1548 16.8487 23.7946L35.062 48.872C36.0427 50.2218 37.9348 50.365 39.1637 49.2756L39.4444 49.0283C40.8279 47.8 41.0517 45.5561 39.8676 44.1065L20.58 20.47C21.1416 19.8016 21.5525 19.168 21.6909 18.6862ZM26.8465 24.1548L29.8454 20.2747C25.9879 10.0753 40.2827 -3.51804 47.2124 2.73179C55.6314 10.3314 43.1188 28.6469 34.3255 24.1201L30.7732 28.9333L26.8465 24.1548Z" fill="#2B87BE"/>
</svg>
