<svg width="25" height="20" viewBox="0 0 25 20" fill="none" xmlns="http://www.w3.org/2000/svg">
<path d="M0.875 15.75H2.1875H22.4H23.625C24.15 15.75 24.5 15.4 24.5 14.875C24.5 14.35 24.15 14 23.625 14H22.75C22.575 9.0125 19.1625 4.9 14.6125 3.7625C14.7875 3.4125 14.875 3.0625 14.875 2.625C14.875 1.1375 13.7375 0 12.25 0C10.7625 0 9.625 1.1375 9.625 2.625C9.625 3.0625 9.7125 3.4125 9.8875 3.7625C5.3375 4.9 1.925 9.0125 1.75 14H0.875C0.35 14 0 14.35 0 14.875C0 15.4 0.35 15.75 0.875 15.75Z" fill="black"/>
<path d="M3.0625 17.5L3.7625 18.8125C3.85 19.075 4.2 19.25 4.55 19.25H20.0375C20.3875 19.25 20.65 19.075 20.825 18.8125L21.525 17.5H3.0625Z" fill="black"/>
</svg>
