<svg width="25" height="27" viewBox="0 0 25 27" fill="none" xmlns="http://www.w3.org/2000/svg">
<mask id="path-1-inside-1_179_1515" fill="white">
<path d="M1.29136 14.2759H3.57971C3.49405 14.5145 3.4808 14.7732 3.54211 15.0193C3.60342 15.2654 3.73608 15.4878 3.92386 15.6585L7.45825 18.8981L7.45868 18.8976C7.46167 18.9004 7.46402 18.9034 7.46744 18.906L13.0521 23.7469H12.9148C12.677 23.7469 12.4843 23.9398 12.4843 24.1776V25.8996C12.4843 26.0136 12.5296 26.1232 12.6104 26.204C12.6911 26.2845 12.8005 26.33 12.9148 26.33H18.0808C18.1949 26.33 18.3045 26.2845 18.3852 26.204C18.466 26.1232 18.5113 26.0136 18.5113 25.8996V24.1776C18.5113 24.0633 18.466 23.9539 18.3852 23.8731C18.3045 23.7924 18.1949 23.7469 18.0808 23.7469V23.0642L18.3113 22.8337C18.7163 22.431 18.9435 21.8828 18.9417 21.3116V18.6742L20.5022 15.2409V15.2411C20.6411 14.9369 20.6562 14.5908 20.5441 14.276H23.6773C24.0197 14.2755 24.3479 14.1394 24.5901 13.8972C24.8321 13.6552 24.9684 13.3268 24.9688 12.9844V12.1235C24.9688 12.0092 24.9233 11.8999 24.8426 11.8191C24.7618 11.7384 24.6525 11.6931 24.5382 11.6931H22.8162V11.2626C22.8162 6.27774 18.7605 2.22222 13.7758 2.22222V1.36112H14.2064C14.4442 1.36112 14.6369 1.16843 14.6369 0.930664C14.6369 0.692899 14.4442 0.5 14.2064 0.5H10.7624C10.5246 0.5 10.3317 0.692899 10.3317 0.930664C10.3317 1.16843 10.5246 1.36112 10.7624 1.36112H11.1928V2.22201C6.20775 2.22201 2.15245 6.27763 2.15245 11.2624V11.6928L0.43045 11.6931C0.192686 11.6931 0 11.8857 0 12.1235V12.9844C0.000427219 13.3268 0.136505 13.6552 0.378755 13.8972C0.62079 14.1394 0.949145 14.2755 1.29138 14.2759L1.29136 14.2759ZM4.39531 14.5504C4.45726 14.3831 4.61812 14.2731 4.79649 14.2759H5.04216C5.21092 14.2761 5.36409 14.3748 5.43416 14.5282L5.7578 15.2402V15.2408L6.48329 16.8366L4.50557 15.024C4.37205 14.9054 4.32781 14.7155 4.39531 14.5504ZM17.6503 25.4687H13.3453V24.6078H17.6503V25.4687ZM19.6886 14.4733C19.7692 14.5959 19.7805 14.7516 19.7185 14.8845L18.1194 18.4026C18.0939 18.4586 18.0809 18.5195 18.0809 18.5808V21.3116C18.0818 21.6544 17.9455 21.9832 17.7026 22.2248L17.3458 22.5813V22.5815C17.2653 22.6623 17.2198 22.7717 17.2198 22.8859V23.7468H14.3669L8.10185 18.3172L6.54135 14.8845C6.48089 14.7512 6.492 14.5963 6.57147 14.4732C6.65072 14.3502 6.78723 14.2758 6.93356 14.2758H7.21682C7.38003 14.2752 7.52935 14.3675 7.60199 14.5138L9.08604 17.4819C9.13304 17.5763 9.21315 17.65 9.3112 17.6891L13.6161 19.4111C13.7001 19.4446 13.7926 19.4508 13.8804 19.429L15.6024 18.9986C15.719 18.9693 15.8184 18.8926 15.8758 18.7871L18.2142 14.5003V14.5001C18.2896 14.3619 18.4346 14.2758 18.5923 14.2758H19.3272H19.327C19.4737 14.2745 19.6106 14.3493 19.6888 14.4732L19.6886 14.4733ZM8.44542 14.2759H17.3557L15.2103 18.2091L13.8063 18.5601L9.78297 16.9504L8.44542 14.2759ZM12.0537 1.36087H12.9146L12.9148 2.22176H12.0537L12.0537 1.36087ZM3.01331 11.262C3.01331 6.7518 6.68273 3.08243 11.1929 3.08243H13.7758C18.2861 3.08243 21.9554 6.75185 21.9554 11.262V11.6925L3.01331 11.6927V11.262ZM0.860863 12.5536H24.108V12.984C24.1078 13.2218 23.9151 13.4143 23.6775 13.4147H1.29119C1.05364 13.4143 0.860956 13.2218 0.860743 12.984L0.860863 12.5536Z"/>
</mask>
<path d="M1.29136 14.2759H3.57971C3.49405 14.5145 3.4808 14.7732 3.54211 15.0193C3.60342 15.2654 3.73608 15.4878 3.92386 15.6585L7.45825 18.8981L7.45868 18.8976C7.46167 18.9004 7.46402 18.9034 7.46744 18.906L13.0521 23.7469H12.9148C12.677 23.7469 12.4843 23.9398 12.4843 24.1776V25.8996C12.4843 26.0136 12.5296 26.1232 12.6104 26.204C12.6911 26.2845 12.8005 26.33 12.9148 26.33H18.0808C18.1949 26.33 18.3045 26.2845 18.3852 26.204C18.466 26.1232 18.5113 26.0136 18.5113 25.8996V24.1776C18.5113 24.0633 18.466 23.9539 18.3852 23.8731C18.3045 23.7924 18.1949 23.7469 18.0808 23.7469V23.0642L18.3113 22.8337C18.7163 22.431 18.9435 21.8828 18.9417 21.3116V18.6742L20.5022 15.2409V15.2411C20.6411 14.9369 20.6562 14.5908 20.5441 14.276H23.6773C24.0197 14.2755 24.3479 14.1394 24.5901 13.8972C24.8321 13.6552 24.9684 13.3268 24.9688 12.9844V12.1235C24.9688 12.0092 24.9233 11.8999 24.8426 11.8191C24.7618 11.7384 24.6525 11.6931 24.5382 11.6931H22.8162V11.2626C22.8162 6.27774 18.7605 2.22222 13.7758 2.22222V1.36112H14.2064C14.4442 1.36112 14.6369 1.16843 14.6369 0.930664C14.6369 0.692899 14.4442 0.5 14.2064 0.5H10.7624C10.5246 0.5 10.3317 0.692899 10.3317 0.930664C10.3317 1.16843 10.5246 1.36112 10.7624 1.36112H11.1928V2.22201C6.20775 2.22201 2.15245 6.27763 2.15245 11.2624V11.6928L0.43045 11.6931C0.192686 11.6931 0 11.8857 0 12.1235V12.9844C0.000427219 13.3268 0.136505 13.6552 0.378755 13.8972C0.62079 14.1394 0.949145 14.2755 1.29138 14.2759L1.29136 14.2759ZM4.39531 14.5504C4.45726 14.3831 4.61812 14.2731 4.79649 14.2759H5.04216C5.21092 14.2761 5.36409 14.3748 5.43416 14.5282L5.7578 15.2402V15.2408L6.48329 16.8366L4.50557 15.024C4.37205 14.9054 4.32781 14.7155 4.39531 14.5504ZM17.6503 25.4687H13.3453V24.6078H17.6503V25.4687ZM19.6886 14.4733C19.7692 14.5959 19.7805 14.7516 19.7185 14.8845L18.1194 18.4026C18.0939 18.4586 18.0809 18.5195 18.0809 18.5808V21.3116C18.0818 21.6544 17.9455 21.9832 17.7026 22.2248L17.3458 22.5813V22.5815C17.2653 22.6623 17.2198 22.7717 17.2198 22.8859V23.7468H14.3669L8.10185 18.3172L6.54135 14.8845C6.48089 14.7512 6.492 14.5963 6.57147 14.4732C6.65072 14.3502 6.78723 14.2758 6.93356 14.2758H7.21682C7.38003 14.2752 7.52935 14.3675 7.60199 14.5138L9.08604 17.4819C9.13304 17.5763 9.21315 17.65 9.3112 17.6891L13.6161 19.4111C13.7001 19.4446 13.7926 19.4508 13.8804 19.429L15.6024 18.9986C15.719 18.9693 15.8184 18.8926 15.8758 18.7871L18.2142 14.5003V14.5001C18.2896 14.3619 18.4346 14.2758 18.5923 14.2758H19.3272H19.327C19.4737 14.2745 19.6106 14.3493 19.6888 14.4732L19.6886 14.4733ZM8.44542 14.2759H17.3557L15.2103 18.2091L13.8063 18.5601L9.78297 16.9504L8.44542 14.2759ZM12.0537 1.36087H12.9146L12.9148 2.22176H12.0537L12.0537 1.36087ZM3.01331 11.262C3.01331 6.7518 6.68273 3.08243 11.1929 3.08243H13.7758C18.2861 3.08243 21.9554 6.75185 21.9554 11.262V11.6925L3.01331 11.6927V11.262ZM0.860863 12.5536H24.108V12.984C24.1078 13.2218 23.9151 13.4143 23.6775 13.4147H1.29119C1.05364 13.4143 0.860956 13.2218 0.860743 12.984L0.860863 12.5536Z" fill="black"/>
<path d="M4.3951 14.5504V15.0504H4.39531V14.5504V14.0504H4.3951V14.5504ZM1.29136 14.2759V13.2759H0.0878882L0.308274 14.459L1.29136 14.2759ZM3.57971 14.2759L4.5209 14.6137L5.00119 13.2759H3.57971V14.2759ZM3.54211 15.0193L2.57177 15.261L2.57177 15.261L3.54211 15.0193ZM3.92386 15.6585L4.59955 14.9213L4.59655 14.9185L3.92386 15.6585ZM7.45825 18.8981L6.78256 19.6352L7.48836 20.2822L8.16536 19.6052L7.45825 18.8981ZM7.45868 18.8976L8.13913 18.1648L7.43298 17.5091L6.75157 18.1905L7.45868 18.8976ZM7.46744 18.906L8.12244 18.1503L8.09569 18.1271L8.06738 18.1059L7.46744 18.906ZM13.0521 23.7469V24.7469H15.7325L13.7071 22.9913L13.0521 23.7469ZM12.6104 26.204L11.9032 26.9111L11.9042 26.912L12.6104 26.204ZM18.3852 26.204L19.0914 26.912L19.0923 26.9111L18.3852 26.204ZM18.3852 23.8731L19.0924 23.166L19.0923 23.166L18.3852 23.8731ZM18.0808 23.7469H17.0808V24.7469H18.0808V23.7469ZM18.0808 23.0642L17.3737 22.3571L17.0808 22.65V23.0642H18.0808ZM18.3113 22.8337L17.6063 22.1245L17.6042 22.1266L18.3113 22.8337ZM18.9417 21.3116H17.9417L17.9417 21.3147L18.9417 21.3116ZM18.9417 18.6742L18.0313 18.2604L17.9417 18.4576V18.6742H18.9417ZM20.5022 15.2409H21.5022L19.5918 14.8271L20.5022 15.2409ZM20.5022 15.2411H19.5022L21.4119 15.6563L20.5022 15.2411ZM20.5441 14.276V13.276H19.1263L19.6021 14.6115L20.5441 14.276ZM23.6773 14.276V15.276L23.6785 15.276L23.6773 14.276ZM24.5901 13.8972L23.883 13.1901L23.8829 13.1901L24.5901 13.8972ZM24.9688 12.9844L25.9688 12.9857V12.9844H24.9688ZM24.8426 11.8191L25.5497 11.112L25.5497 11.112L24.8426 11.8191ZM22.8162 11.6931H21.8162V12.6931H22.8162V11.6931ZM13.7758 2.22222H12.7758V3.22222H13.7758V2.22222ZM13.7758 1.36112V0.361115H12.7758V1.36112H13.7758ZM11.1928 1.36112H12.1928V0.361115H11.1928V1.36112ZM11.1928 2.22201V3.22201H12.1928V2.22201H11.1928ZM2.15245 11.6928L2.15258 12.6928L3.15245 12.6927V11.6928H2.15245ZM0.43045 11.6931V12.6931H0.430575L0.43045 11.6931ZM0 12.9844H-1L-0.999999 12.9856L0 12.9844ZM0.378755 13.8972L1.08617 13.1904L1.08549 13.1897L0.378755 13.8972ZM1.29138 14.2759L1.29013 15.2759L2.49514 15.2774L2.27447 14.0928L1.29138 14.2759ZM4.39531 14.5504L5.32095 14.9288L5.32727 14.9133L5.33306 14.8977L4.39531 14.5504ZM4.79649 14.2759L4.78092 15.2757L4.78871 15.2759H4.79649V14.2759ZM5.04216 14.2759L5.04343 13.2759H5.04216V14.2759ZM5.43416 14.5282L6.34453 14.1144L6.34374 14.1126L5.43416 14.5282ZM5.7578 15.2402H6.7578V15.0236L6.66817 14.8264L5.7578 15.2402ZM5.7578 15.2408H4.7578V15.4575L4.84746 15.6547L5.7578 15.2408ZM6.48329 16.8366L5.80762 17.5738L7.39362 16.4227L6.48329 16.8366ZM4.50557 15.024L5.18123 14.2868L5.17544 14.2815L5.16957 14.2763L4.50557 15.024ZM17.6503 25.4687V26.4687H18.6503V25.4687H17.6503ZM13.3453 25.4687H12.3453V26.4687H13.3453V25.4687ZM13.3453 24.6078V23.6078H12.3453V24.6078H13.3453ZM17.6503 24.6078H18.6503V23.6078H17.6503V24.6078ZM19.6886 14.4733L19.3523 13.5315L18.1546 13.9593L18.8528 15.0222L19.6886 14.4733ZM19.7185 14.8845L18.8122 14.4619L18.8082 14.4707L19.7185 14.8845ZM18.1194 18.4026L17.209 17.9888L17.2089 17.9891L18.1194 18.4026ZM18.0809 21.3116H17.0809L17.0809 21.3141L18.0809 21.3116ZM17.7026 22.2248L16.9973 21.5158L16.9957 21.5175L17.7026 22.2248ZM17.3458 22.5813L16.6389 21.874L16.3458 22.1669V22.5813H17.3458ZM17.3458 22.5815L18.0539 23.2877L18.3458 22.995V22.5815H17.3458ZM17.2198 23.7468V24.7468H18.2198V23.7468H17.2198ZM14.3669 23.7468L13.7119 24.5025L13.9938 24.7468H14.3669V23.7468ZM8.10185 18.3172L7.1915 18.731L7.28188 18.9298L7.44692 19.0729L8.10185 18.3172ZM6.54135 14.8845L5.63063 15.2975L5.631 15.2983L6.54135 14.8845ZM6.57147 14.4732L7.41151 15.0158L7.41217 15.0147L6.57147 14.4732ZM7.21682 14.2758V15.2759L7.22075 15.2758L7.21682 14.2758ZM7.60199 14.5138L6.70626 14.9584L6.70756 14.961L7.60199 14.5138ZM9.08604 17.4819L9.98128 17.0363L9.98046 17.0347L9.08604 17.4819ZM9.3112 17.6891L9.6826 16.7606L9.68156 16.7602L9.3112 17.6891ZM13.6161 19.4111L13.2448 20.3396L13.2452 20.3397L13.6161 19.4111ZM13.8804 19.429L14.1213 20.3996L14.1229 20.3992L13.8804 19.429ZM15.6024 18.9986L15.8449 19.9687L15.8458 19.9685L15.6024 18.9986ZM15.8758 18.7871L14.9979 18.3082L14.9976 18.3089L15.8758 18.7871ZM18.2142 14.5003L19.0921 14.9792L19.2142 14.7553V14.5003H18.2142ZM18.2142 14.5001L17.3363 14.0211L17.2142 14.245V14.5001H18.2142ZM19.327 14.2758L19.3182 13.2758L19.327 15.2758V14.2758ZM19.6888 14.4732L20.0252 15.4149L21.2007 14.9951L20.5345 13.9395L19.6888 14.4732ZM8.44542 14.2759V13.2759H6.82724L7.55103 14.7232L8.44542 14.2759ZM17.3557 14.2759L18.2335 14.7547L19.0402 13.2759H17.3557V14.2759ZM15.2103 18.2091L15.4528 19.1792L15.8782 19.0729L16.0882 18.688L15.2103 18.2091ZM13.8063 18.5601L13.4349 19.4885L13.7351 19.6087L14.0489 19.5302L13.8063 18.5601ZM9.78297 16.9504L8.88858 17.3977L9.05859 17.7377L9.41151 17.8789L9.78297 16.9504ZM12.0537 1.36087V0.360867H11.0537L11.0537 1.36086L12.0537 1.36087ZM12.9146 1.36087L13.9146 1.36062L13.9143 0.360867H12.9146V1.36087ZM12.9148 2.22176V3.22176H13.9151L13.9148 2.22151L12.9148 2.22176ZM12.0537 2.22176L11.0537 2.22175L11.0537 3.22176H12.0537V2.22176ZM21.9554 11.6925L21.9554 12.6925L22.9554 12.6925V11.6925H21.9554ZM3.01331 11.6927H2.01331V12.6927L3.01332 12.6927L3.01331 11.6927ZM0.860863 12.5536V11.5536H-0.138857L-0.139137 12.5533L0.860863 12.5536ZM24.108 12.5536H25.108V11.5536H24.108V12.5536ZM24.108 12.984L25.108 12.9849V12.984H24.108ZM23.6775 13.4147V14.4147L23.6793 14.4147L23.6775 13.4147ZM1.29119 13.4147L1.2894 14.4147H1.29119V13.4147ZM0.860743 12.984L-0.139257 12.9838L-0.139256 12.9849L0.860743 12.984ZM1.29136 14.2759V15.2759H3.57971V14.2759V13.2759H1.29136V14.2759ZM3.57971 14.2759L2.63852 13.938C2.48626 14.3621 2.46252 14.8225 2.57177 15.261L3.54211 15.0193L4.51245 14.7776C4.49908 14.7239 4.50183 14.6669 4.5209 14.6137L3.57971 14.2759ZM3.54211 15.0193L2.57177 15.261C2.68077 15.6985 2.9168 16.0944 3.25117 16.3984L3.92386 15.6585L4.59655 14.9185C4.55537 14.8811 4.52607 14.8322 4.51245 14.7775L3.54211 15.0193ZM3.92386 15.6585L3.24816 16.3957L6.78256 19.6352L7.45825 18.8981L8.13395 18.1609L4.59955 14.9213L3.92386 15.6585ZM7.45825 18.8981L8.16536 19.6052L8.16579 19.6047L7.45868 18.8976L6.75157 18.1905L6.75115 18.1909L7.45825 18.8981ZM7.45868 18.8976L6.77823 19.6304C6.7618 19.6152 6.74965 19.6028 6.74536 19.5984C6.74338 19.5963 6.74155 19.5944 6.74262 19.5956C6.74291 19.5959 6.7457 19.5988 6.74908 19.6022C6.76234 19.6157 6.80529 19.6593 6.86751 19.706L7.46744 18.906L8.06738 18.1059C8.12617 18.15 8.16624 18.1909 8.17672 18.2015C8.1794 18.2043 8.18151 18.2065 8.18111 18.206C8.18109 18.206 8.18109 18.206 8.18101 18.2059C8.18096 18.2059 8.18087 18.2058 8.18077 18.2057C8.18057 18.2055 8.18025 18.2052 8.17986 18.2048C8.17909 18.204 8.17784 18.2027 8.1763 18.2011C8.17062 18.1953 8.15706 18.1815 8.13913 18.1648L7.45868 18.8976ZM7.46744 18.906L6.81244 19.6616L12.3971 24.5025L13.0521 23.7469L13.7071 22.9913L8.12244 18.1503L7.46744 18.906ZM13.0521 23.7469V22.7469H12.9148V23.7469V24.7469H13.0521V23.7469ZM12.9148 23.7469V22.7469C12.1241 22.7469 11.4843 23.3881 11.4843 24.1776H12.4843H13.4843C13.4843 24.4914 13.2299 24.7469 12.9148 24.7469V23.7469ZM12.4843 24.1776H11.4843V25.8996H12.4843H13.4843V24.1776H12.4843ZM12.4843 25.8996H11.4843C11.4843 26.2784 11.6346 26.6424 11.9032 26.9111L12.6104 26.204L13.3175 25.4969C13.4246 25.604 13.4843 25.7489 13.4843 25.8996H12.4843ZM12.6104 26.204L11.9042 26.912C12.1714 27.1785 12.5344 27.33 12.9148 27.33V26.33V25.33C13.0666 25.33 13.2108 25.3905 13.3165 25.4959L12.6104 26.204ZM12.9148 26.33V27.33H18.0808V26.33V25.33H12.9148V26.33ZM18.0808 26.33V27.33C18.4608 27.33 18.824 27.1787 19.0914 26.912L18.3852 26.204L17.6791 25.4959C17.785 25.3903 17.929 25.33 18.0808 25.33V26.33ZM18.3852 26.204L19.0923 26.9111C19.361 26.6424 19.5113 26.2784 19.5113 25.8996H18.5113H17.5113C17.5113 25.7489 17.571 25.604 17.6781 25.4969L18.3852 26.204ZM18.5113 25.8996H19.5113V24.1776H18.5113H17.5113V25.8996H18.5113ZM18.5113 24.1776H19.5113C19.5113 23.7983 19.3608 23.4345 19.0924 23.166L18.3852 23.8731L17.6781 24.5802C17.5712 24.4733 17.5113 24.3283 17.5113 24.1776H18.5113ZM18.3852 23.8731L19.0923 23.166C18.8246 22.8983 18.4609 22.7469 18.0808 22.7469V23.7469V24.7469C17.9289 24.7469 17.7843 24.6865 17.6781 24.5802L18.3852 23.8731ZM18.0808 23.7469H19.0808V23.0642H18.0808H17.0808V23.7469H18.0808ZM18.0808 23.0642L18.7879 23.7713L19.0184 23.5408L18.3113 22.8337L17.6042 22.1266L17.3737 22.3571L18.0808 23.0642ZM18.3113 22.8337L19.0164 23.5428C19.6109 22.9518 19.9443 22.1471 19.9417 21.3085L18.9417 21.3116L17.9417 21.3147C17.9426 21.6185 17.8218 21.9102 17.6063 22.1245L18.3113 22.8337ZM18.9417 21.3116H19.9417V18.6742H18.9417H17.9417V21.3116H18.9417ZM18.9417 18.6742L19.8521 19.088L21.4126 15.6546L20.5022 15.2409L19.5918 14.8271L18.0313 18.2604L18.9417 18.6742ZM20.5022 15.2409H19.5022V15.2411H20.5022H21.5022V15.2409H20.5022ZM20.5022 15.2411L21.4119 15.6563C21.6585 15.1162 21.6857 14.5008 21.4861 13.9404L20.5441 14.276L19.6021 14.6115C19.6267 14.6808 19.6237 14.7576 19.5925 14.8258L20.5022 15.2411ZM20.5441 14.276V15.276H23.6773V14.276V13.276H20.5441V14.276ZM23.6773 14.276L23.6785 15.276C24.2857 15.2752 24.8677 15.0339 25.2972 14.6042L24.5901 13.8972L23.8829 13.1901C23.828 13.245 23.7538 13.2759 23.676 13.276L23.6773 14.276ZM24.5901 13.8972L25.2972 14.6043C25.7264 14.1751 25.9681 13.5929 25.9688 12.9857L24.9688 12.9844L23.9688 12.9832C23.9687 13.0607 23.9378 13.1353 23.883 13.1901L24.5901 13.8972ZM24.9688 12.9844H25.9688V12.1235H24.9688H23.9688V12.9844H24.9688ZM24.9688 12.1235H25.9688C25.9688 11.743 25.8172 11.3795 25.5497 11.112L24.8426 11.8191L24.1355 12.5262C24.0294 12.4202 23.9688 12.2755 23.9688 12.1235H24.9688ZM24.8426 11.8191L25.5497 11.112C25.2813 10.8436 24.9175 10.6931 24.5382 10.6931V11.6931V12.6931C24.3875 12.6931 24.2424 12.6331 24.1355 12.5262L24.8426 11.8191ZM24.5382 11.6931V10.6931H22.8162V11.6931V12.6931H24.5382V11.6931ZM22.8162 11.6931H23.8162V11.2626H22.8162H21.8162V11.6931H22.8162ZM22.8162 11.2626H23.8162C23.8162 5.72545 19.3128 1.22222 13.7758 1.22222V2.22222V3.22222C18.2083 3.22222 21.8162 6.83003 21.8162 11.2626H22.8162ZM13.7758 2.22222H14.7758V1.36112H13.7758H12.7758V2.22222H13.7758ZM13.7758 1.36112V2.36112H14.2064V1.36112V0.361115H13.7758V1.36112ZM14.2064 1.36112V2.36112C14.9965 2.36112 15.6369 1.72071 15.6369 0.930664H14.6369H13.6369C13.6369 0.616147 13.8919 0.361115 14.2064 0.361115V1.36112ZM14.6369 0.930664H15.6369C15.6369 0.141261 14.9971 -0.5 14.2064 -0.5V0.5V1.5C13.8913 1.5 13.6369 1.24454 13.6369 0.930664H14.6369ZM14.2064 0.5V-0.5H10.7624V0.5V1.5H14.2064V0.5ZM10.7624 0.5V-0.5C9.97234 -0.5 9.33173 0.140614 9.33173 0.930664H10.3317H11.3317C11.3317 1.24518 11.0769 1.5 10.7624 1.5V0.5ZM10.3317 0.930664H9.33173C9.33173 1.72136 9.97299 2.36112 10.7624 2.36112V1.36112V0.361115C11.0763 0.361115 11.3317 0.615501 11.3317 0.930664H10.3317ZM10.7624 1.36112V2.36112H11.1928V1.36112V0.361115H10.7624V1.36112ZM11.1928 1.36112H10.1928V2.22201H11.1928H12.1928V1.36112H11.1928ZM11.1928 2.22201V1.22201C5.65544 1.22201 1.15245 5.72537 1.15245 11.2624H2.15245H3.15245C3.15245 6.82989 6.76006 3.22201 11.1928 3.22201V2.22201ZM2.15245 11.2624H1.15245V11.6928H2.15245H3.15245V11.2624H2.15245ZM2.15245 11.6928L2.15233 10.6928L0.430326 10.6931L0.43045 11.6931L0.430575 12.6931L2.15258 12.6928L2.15245 11.6928ZM0.43045 11.6931V10.6931C-0.359604 10.6931 -1 11.3335 -1 12.1235H0H1C1 12.438 0.744975 12.6931 0.43045 12.6931V11.6931ZM0 12.1235H-1V12.9844H0H1V12.1235H0ZM0 12.9844L-0.999999 12.9856C-0.999242 13.5925 -0.75808 14.175 -0.327977 14.6047L0.378755 13.8972L1.08549 13.1897C1.03109 13.1354 1.0001 13.0612 0.999999 12.9832L0 12.9844ZM0.378755 13.8972L-0.328664 14.604C0.100925 15.034 0.683381 15.2752 1.29013 15.2759L1.29138 14.2759L1.29263 13.2759C1.21491 13.2759 1.14066 13.2449 1.08617 13.1904L0.378755 13.8972ZM1.29138 14.2759L2.27447 14.0928L2.27445 14.0927L1.29136 14.2759L0.308274 14.459L0.30829 14.4591L1.29138 14.2759ZM4.39531 14.5504L5.33306 14.8977C5.24759 15.1284 5.02613 15.2796 4.78092 15.2757L4.79649 14.2759L4.81207 13.276C4.21011 13.2666 3.66693 13.6378 3.45756 14.2031L4.39531 14.5504ZM4.79649 14.2759V15.2759H5.04216V14.2759V13.2759H4.79649V14.2759ZM5.04216 14.2759L5.04089 15.2759C4.81827 15.2756 4.61682 15.1456 4.52458 14.9437L5.43416 14.5282L6.34374 14.1126C6.11136 13.6039 5.60357 13.2766 5.04343 13.2759L5.04216 14.2759ZM5.43416 14.5282L4.52379 14.9419L4.84743 15.654L5.7578 15.2402L6.66817 14.8264L6.34453 14.1144L5.43416 14.5282ZM5.7578 15.2402H4.7578V15.2408H5.7578H6.7578V15.2402H5.7578ZM5.7578 15.2408L4.84746 15.6547L5.57295 17.2505L6.48329 16.8366L7.39362 16.4227L6.66814 14.827L5.7578 15.2408ZM6.48329 16.8366L7.15895 16.0994L5.18123 14.2868L4.50557 15.024L3.8299 15.7612L5.80762 17.5738L6.48329 16.8366ZM4.50557 15.024L5.16957 14.2763C5.35282 14.439 5.41435 14.7003 5.32095 14.9288L4.39531 14.5504L3.46967 14.172C3.24126 14.7307 3.39128 15.3719 3.84157 15.7717L4.50557 15.024ZM17.6503 25.4687V24.4687H13.3453V25.4687V26.4687H17.6503V25.4687ZM13.3453 25.4687H14.3453V24.6078H13.3453H12.3453V25.4687H13.3453ZM13.3453 24.6078V25.6078H17.6503V24.6078V23.6078H13.3453V24.6078ZM17.6503 24.6078H16.6503V25.4687H17.6503H18.6503V24.6078H17.6503ZM19.6886 14.4733L18.8528 15.0222C18.7432 14.8553 18.7276 14.6434 18.8122 14.4619L19.7185 14.8845L20.6249 15.307C20.8334 14.8598 20.7952 14.3364 20.5245 13.9243L19.6886 14.4733ZM19.7185 14.8845L18.8082 14.4707L17.209 17.9888L18.1194 18.4026L19.0297 18.8164L20.6289 15.2983L19.7185 14.8845ZM18.1194 18.4026L17.2089 17.9891C17.1239 18.1762 17.0809 18.3783 17.0809 18.5808H18.0809H19.0809C19.0809 18.6607 19.064 18.741 19.0298 18.8162L18.1194 18.4026ZM18.0809 18.5808H17.0809V21.3116H18.0809H19.0809V18.5808H18.0809ZM18.0809 21.3116L17.0809 21.3141C17.0811 21.3899 17.051 21.4625 16.9973 21.5158L17.7026 22.2248L18.4078 22.9338C18.84 22.5039 19.0824 21.919 19.0809 21.3091L18.0809 21.3116ZM17.7026 22.2248L16.9957 21.5175L16.6389 21.874L17.3458 22.5813L18.0527 23.2886L18.4095 22.9321L17.7026 22.2248ZM17.3458 22.5813H16.3458V22.5815H17.3458H18.3458V22.5813H17.3458ZM17.3458 22.5815L16.6378 21.8754C16.3713 22.1426 16.2198 22.5055 16.2198 22.8859H17.2198H18.2198C18.2198 23.0378 18.1593 23.182 18.0539 23.2877L17.3458 22.5815ZM17.2198 22.8859H16.2198V23.7468H17.2198H18.2198V22.8859H17.2198ZM17.2198 23.7468V22.7468H14.3669V23.7468V24.7468H17.2198V23.7468ZM14.3669 23.7468L15.0218 22.9911L8.75678 17.5615L8.10185 18.3172L7.44692 19.0729L13.7119 24.5025L14.3669 23.7468ZM8.10185 18.3172L9.0122 17.9034L7.45169 14.4706L6.54135 14.8845L5.631 15.2983L7.1915 18.731L8.10185 18.3172ZM6.54135 14.8845L7.45206 14.4714C7.53141 14.6464 7.51752 14.8516 7.41151 15.0158L6.57147 14.4732L5.73143 13.9307C5.46648 14.341 5.43037 14.8559 5.63063 15.2975L6.54135 14.8845ZM6.57147 14.4732L7.41217 15.0147C7.3071 15.1779 7.12672 15.2758 6.93356 15.2758V14.2758V13.2758C6.44773 13.2758 5.99434 13.5225 5.73076 13.9317L6.57147 14.4732ZM6.93356 14.2758V15.2758H7.21682V14.2758V13.2758H6.93356V14.2758ZM7.21682 14.2758L7.22075 15.2758C7.00206 15.2767 6.80283 15.153 6.70626 14.9584L7.60199 14.5138L8.49771 14.0692C8.25587 13.582 7.758 13.2737 7.2129 13.2759L7.21682 14.2758ZM7.60199 14.5138L6.70756 14.961L8.19162 17.9291L9.08604 17.4819L9.98046 17.0347L8.49641 14.0666L7.60199 14.5138ZM9.08604 17.4819L8.1908 17.9275C8.34758 18.2424 8.61476 18.488 8.94084 18.618L9.3112 17.6891L9.68156 16.7602C9.81153 16.812 9.9185 16.9102 9.98128 17.0363L9.08604 17.4819ZM9.3112 17.6891L8.93981 18.6176L13.2448 20.3396L13.6161 19.4111L13.9875 18.4826L9.6826 16.7606L9.3112 17.6891ZM13.6161 19.4111L13.2452 20.3397C13.5247 20.4514 13.8313 20.4716 14.1213 20.3996L13.8804 19.429L13.6395 18.4585C13.7539 18.4301 13.8755 18.4378 13.9871 18.4825L13.6161 19.4111ZM13.8804 19.429L14.1229 20.3992L15.8449 19.9687L15.6024 18.9986L15.3599 18.0284L13.6379 18.4589L13.8804 19.429ZM15.6024 18.9986L15.8458 19.9685C16.2322 19.8716 16.5623 19.6174 16.7541 19.2653L15.8758 18.7871L14.9976 18.3089C15.0744 18.1679 15.2059 18.0671 15.359 18.0287L15.6024 18.9986ZM15.8758 18.7871L16.7537 19.266L19.0921 14.9792L18.2142 14.5003L17.3363 14.0214L14.9979 18.3082L15.8758 18.7871ZM18.2142 14.5003H19.2142V14.5001H18.2142H17.2142V14.5003H18.2142ZM18.2142 14.5001L19.092 14.9791C18.992 15.1623 18.8003 15.2758 18.5923 15.2758V14.2758V13.2758C18.069 13.2758 17.5871 13.5615 17.3363 14.0211L18.2142 14.5001ZM18.5923 14.2758V15.2758H19.3272V14.2758V13.2758H18.5923V14.2758ZM19.3272 14.2758V13.2758H19.327V14.2758V15.2758H19.3272V14.2758ZM19.327 14.2758L19.3357 15.2758C19.1362 15.2775 18.9499 15.176 18.8431 15.0069L19.6888 14.4732L20.5345 13.9395C20.2714 13.5226 19.8112 13.2715 19.3182 13.2758L19.327 14.2758ZM19.6888 14.4732L19.3525 13.5314L19.3523 13.5315L19.6886 14.4733L20.025 15.415L20.0252 15.4149L19.6888 14.4732ZM8.44542 14.2759V15.2759H17.3557V14.2759V13.2759H8.44542V14.2759ZM17.3557 14.2759L16.4778 13.797L14.3324 17.7303L15.2103 18.2091L16.0882 18.688L18.2335 14.7547L17.3557 14.2759ZM15.2103 18.2091L14.9677 17.239L13.5638 17.5899L13.8063 18.5601L14.0489 19.5302L15.4528 19.1792L15.2103 18.2091ZM13.8063 18.5601L14.1778 17.6316L10.1544 16.022L9.78297 16.9504L9.41151 17.8789L13.4349 19.4885L13.8063 18.5601ZM9.78297 16.9504L10.6774 16.5031L9.33981 13.8286L8.44542 14.2759L7.55103 14.7232L8.88858 17.3977L9.78297 16.9504ZM12.0537 1.36087V2.36087H12.9146V1.36087V0.360867H12.0537V1.36087ZM12.9146 1.36087L11.9146 1.36111L11.9148 2.22201L12.9148 2.22176L13.9148 2.22151L13.9146 1.36062L12.9146 1.36087ZM12.9148 2.22176V1.22176H12.0537V2.22176V3.22176H12.9148V2.22176ZM12.0537 2.22176L13.0537 2.22176L13.0537 1.36087L12.0537 1.36087L11.0537 1.36086L11.0537 2.22175L12.0537 2.22176ZM3.01331 11.262H4.01331C4.01331 7.30409 7.23501 4.08243 11.1929 4.08243V3.08243V2.08243C6.13045 2.08243 2.01331 6.19951 2.01331 11.262H3.01331ZM11.1929 3.08243V4.08243H13.7758V3.08243V2.08243H11.1929V3.08243ZM13.7758 3.08243V4.08243C17.7338 4.08243 20.9554 7.30413 20.9554 11.262H21.9554H22.9554C22.9554 6.19957 18.8383 2.08243 13.7758 2.08243V3.08243ZM21.9554 11.262H20.9554V11.6925H21.9554H22.9554V11.262H21.9554ZM21.9554 11.6925L21.9554 10.6925L3.0133 10.6927L3.01331 11.6927L3.01332 12.6927L21.9554 12.6925L21.9554 11.6925ZM3.01331 11.6927H4.01331V11.262H3.01331H2.01331V11.6927H3.01331ZM0.860863 12.5536V13.5536H24.108V12.5536V11.5536H0.860863V12.5536ZM24.108 12.5536H23.108V12.984H24.108H25.108V12.5536H24.108ZM24.108 12.984L23.108 12.9831C23.1083 12.6688 23.3629 12.4153 23.6757 12.4147L23.6775 13.4147L23.6793 14.4147C24.4672 14.4133 25.1073 13.7748 25.108 12.9849L24.108 12.984ZM23.6775 13.4147V12.4147H1.29119V13.4147V14.4147H23.6775V13.4147ZM1.29119 13.4147L1.29299 12.4147C1.60582 12.4153 1.86046 12.6688 1.86074 12.9831L0.860743 12.984L-0.139256 12.9849C-0.138548 13.7748 0.501461 14.4133 1.2894 14.4147L1.29119 13.4147ZM0.860743 12.984L1.86074 12.9843L1.86086 12.5539L0.860863 12.5536L-0.139137 12.5533L-0.139257 12.9838L0.860743 12.984Z" fill="black" mask="url(#path-1-inside-1_179_1515)"/>
</svg>
