<svg width="28" height="29" viewBox="0 0 28 29" fill="none" xmlns="http://www.w3.org/2000/svg">
<path d="M23.3333 20.3335V13.8609C23.3333 13.2375 23.3328 12.9257 23.257 12.6356C23.1898 12.3785 23.0795 12.1352 22.9303 11.9154C22.7619 11.6673 22.5278 11.4616 22.0587 11.0511L16.4586 6.15113C15.5876 5.38896 15.1521 5.00807 14.6619 4.86313C14.23 4.7354 13.7697 4.7354 13.3378 4.86313C12.848 5.00796 12.4131 5.38849 11.5434 6.14951L5.94156 11.0511C5.4724 11.4616 5.23837 11.6673 5.06998 11.9154C4.92075 12.1352 4.80963 12.3785 4.74246 12.6356C4.66666 12.9257 4.66666 13.2375 4.66666 13.8609V20.3335C4.66666 21.4207 4.66666 21.9641 4.84427 22.3929C5.08109 22.9646 5.53503 23.4194 6.10676 23.6563C6.53556 23.8339 7.07916 23.8339 8.16636 23.8339C9.25355 23.8339 9.79775 23.8339 10.2266 23.6563C10.7983 23.4194 11.2521 22.9647 11.4889 22.393C11.6665 21.9642 11.6667 21.4206 11.6667 20.3334V19.1668C11.6667 17.8781 12.7113 16.8334 14 16.8334C15.2887 16.8334 16.3333 17.8781 16.3333 19.1668V20.3334C16.3333 21.4206 16.3333 21.9642 16.5109 22.393C16.7478 22.9647 17.2017 23.4194 17.7734 23.6563C18.2022 23.8339 18.7458 23.8339 19.833 23.8339C20.9202 23.8339 21.4644 23.8339 21.8932 23.6563C22.465 23.4194 22.9188 22.9646 23.1556 22.3929C23.3332 21.9641 23.3333 21.4207 23.3333 20.3335Z" stroke="black" stroke-linecap="round" stroke-linejoin="round"/>
</svg>
