<svg width="18" height="23" viewBox="0 0 18 23" fill="none" xmlns="http://www.w3.org/2000/svg">
<path d="M13.8333 4.65777V2.65615C13.8333 1.75953 13.8333 1.31122 13.6451 1.02142C13.4805 0.76786 13.2239 0.588112 12.9294 0.520037C12.5927 0.442244 12.1714 0.59545 11.3287 0.901864L2.84312 3.98755C2.17908 4.22901 1.84706 4.34975 1.60217 4.56254C1.38585 4.7505 1.21901 4.98871 1.11629 5.25623C1 5.55909 1 5.91238 1 6.61896V11.6578M5.66667 17.4911H12.6667M5.66667 13.4078H12.6667M5.66667 9.32446H12.6667M4.73333 22.1578H13.6C14.9068 22.1578 15.5602 22.1578 16.0593 21.9035C16.4984 21.6797 16.8553 21.3228 17.079 20.8838C17.3333 20.3846 17.3333 19.7312 17.3333 18.4245V8.39111C17.3333 7.08431 17.3333 6.43092 17.079 5.9318C16.8553 5.49274 16.4984 5.13579 16.0593 4.91209C15.5602 4.65777 14.9068 4.65777 13.6 4.65777H4.73333C3.42655 4.65777 2.77315 4.65777 2.27402 4.91209C1.83497 5.13579 1.47802 5.49274 1.25432 5.9318C1 6.43092 1 7.08431 1 8.39111V18.4245C1 19.7312 1 20.3846 1.25432 20.8838C1.47802 21.3228 1.83497 21.6797 2.27402 21.9035C2.77315 22.1578 3.42654 22.1578 4.73333 22.1578Z" stroke="black" stroke-linecap="round" stroke-linejoin="round"/>
</svg>
