<svg width="60" height="60" viewBox="0 0 60 60" fill="none" xmlns="http://www.w3.org/2000/svg">
<path d="M29.3137 42.7547C29.0662 42.211 28.5537 41.8142 27.9335 41.7437C27.4082 41.6837 26.894 41.5712 26.405 41.409C26.1857 41.3352 25.98 41.2547 25.7895 41.1685L26.106 40.3057C26.3295 40.4055 26.5597 40.4967 26.7955 40.5792L26.8052 40.5827L26.8152 40.586C27.5717 40.836 28.3162 40.9627 29.0275 40.9627C29.7417 40.9627 30.2595 40.867 30.6572 40.6617L30.681 40.6495L30.7042 40.636C31.3067 40.2902 31.6525 39.696 31.6525 39.0052C31.6525 38.2387 31.239 37.6025 30.5177 37.2587C30.155 37.0822 29.6397 36.9137 28.8975 36.7292C28.1362 36.5367 27.4967 36.3325 27.0007 36.1232C26.6382 35.9592 26.3237 35.6975 26.0402 35.3232C25.7962 34.9892 25.6727 34.487 25.6727 33.8297C25.6727 33.0367 25.896 32.3822 26.3555 31.8287C26.7645 31.3437 27.3452 31.0142 28.1247 30.8295C28.703 30.6925 29.154 30.2797 29.3567 29.7467C29.586 30.287 30.0737 30.6887 30.6807 30.7855C31.1877 30.8662 31.6532 30.995 32.0717 31.1692L31.7805 32.0147C30.9902 31.6975 30.2125 31.5372 29.4602 31.5372C26.962 31.5372 26.8355 33.2607 26.8355 33.6062C26.8355 34.3552 27.24 34.9832 27.9452 35.3295L27.965 35.3392L27.985 35.3482C28.3412 35.5072 28.8467 35.6605 29.5762 35.8305C30.3305 36.001 30.9595 36.1962 31.4537 36.4127L31.464 36.4172L31.4742 36.4215C31.8412 36.5742 32.156 36.8292 32.4365 37.2012L32.441 37.207L32.4455 37.213C32.6907 37.53 32.8152 38.0202 32.8152 38.6702C32.8152 39.4205 32.598 40.0555 32.151 40.6117C31.7632 41.0942 31.222 41.4282 30.4957 41.6327C29.935 41.7907 29.5 42.2195 29.3137 42.7547Z" fill="#424242"/>
<path d="M29.9463 45H28.7425C28.4733 45 28.255 44.7762 28.255 44.5V43.4963C28.255 43.2323 28.0548 43.0153 27.7988 42.986C27.1893 42.9168 26.5998 42.7875 26.03 42.5985C25.4765 42.412 24.997 42.191 24.5914 41.9347C24.4051 41.817 24.3373 41.578 24.4143 41.368L25.24 39.1165C25.3513 38.8135 25.71 38.6975 25.9863 38.8543C26.3593 39.0655 26.7603 39.2463 27.1888 39.3962C27.8275 39.6073 28.4405 39.7128 29.0275 39.7128C29.5323 39.7128 29.893 39.657 30.1093 39.5452C30.3255 39.421 30.4338 39.241 30.4338 39.0053C30.4338 38.7323 30.2895 38.5275 30.001 38.391C29.723 38.2545 29.2593 38.1055 28.6105 37.9443C27.776 37.7332 27.0808 37.5098 26.5245 37.274C25.9683 37.0258 25.484 36.6285 25.072 36.0825C24.6599 35.524 24.4539 34.773 24.4539 33.8298C24.4539 32.7375 24.7784 31.8005 25.4273 31.0185C26.0123 30.325 26.8198 29.856 27.8503 29.6117C28.0823 29.5567 28.255 29.3502 28.255 29.1062V28C28.255 27.7237 28.4733 27.5 28.7425 27.5H29.9463C30.2155 27.5 30.4338 27.7237 30.4338 28V29.043C30.4338 29.2985 30.6218 29.5113 30.8678 29.5505C31.7705 29.6942 32.5638 29.9665 33.2473 30.3673C33.4413 30.481 33.5183 30.723 33.4438 30.939L32.671 33.1813C32.5688 33.4785 32.2275 33.6043 31.953 33.4623C31.0825 33.0123 30.2518 32.7872 29.4603 32.7872C28.5228 32.7872 28.054 33.0603 28.054 33.6063C28.054 33.867 28.1933 34.0655 28.4713 34.2022C28.7495 34.3262 29.2078 34.4627 29.8465 34.6117C30.6705 34.798 31.366 35.015 31.9325 35.2632C32.499 35.499 32.9883 35.89 33.4005 36.4363C33.8228 36.9823 34.034 37.727 34.034 38.6702C34.034 39.7127 33.7198 40.625 33.0913 41.407C32.544 42.0885 31.7863 42.5655 30.8185 42.8382C30.596 42.901 30.4338 43.103 30.4338 43.3395V44.5C30.4338 44.7762 30.2155 45 29.9463 45Z" fill="#F4BD15"/>
<path fill-rule="evenodd" clip-rule="evenodd" d="M23.9809 12.5H34.5352C37.2385 12.5 35.754 16.66 34.6595 19.1975L33.414 22.1075L33.2457 22.5C34.4255 22.4413 35.5922 22.7763 36.5705 23.455C40.2302 26.8895 43.2005 31.0245 45.314 35.6275C46.1375 37.3295 46.4642 39.2395 46.2547 41.1275C46.0032 45.9397 42.239 49.7745 37.5455 50H20.9706C16.2758 49.7812 12.506 45.9505 12.2492 41.1375C12.0397 39.2495 12.3664 37.3395 13.1901 35.6375C15.306 31.03 18.2804 26.8912 21.9456 23.455C22.924 22.7763 24.0905 22.4413 25.2702 22.5L25.0752 22.0475L23.8566 19.1975C22.767 16.66 21.2752 12.5 23.9809 12.5Z" stroke="#F4BD15" stroke-width="2" stroke-linecap="round" stroke-linejoin="round"/>
<path d="M33.2457 24.375C34.2812 24.375 35.1207 23.5355 35.1207 22.5C35.1207 21.4645 34.2812 20.625 33.2457 20.625V24.375ZM25.2702 20.625C24.2348 20.625 23.3953 21.4645 23.3953 22.5C23.3953 23.5355 24.2348 24.375 25.2702 24.375V20.625ZM39.944 21.6247C40.8412 21.1078 41.1497 19.9614 40.6327 19.0641C40.1157 18.1668 38.9695 17.8584 38.0722 18.3753L39.944 21.6247ZM33.414 22.1075L33.7757 23.9473L33.7812 23.9462L33.414 22.1075ZM25.0752 22.0475L25.4635 20.213L25.4465 20.2096L25.0752 22.0475ZM20.415 18.3589C19.5086 17.858 18.3679 18.1867 17.867 19.093C17.3661 19.9994 17.6948 21.1402 18.6011 21.6411L20.415 18.3589ZM33.2457 20.625H25.2702V24.375H33.2457V20.625ZM38.0722 18.3753C36.5047 19.2782 34.8082 19.9171 33.0467 20.2688L33.7812 23.9462C35.9445 23.5142 38.0252 22.7301 39.944 21.6247L38.0722 18.3753ZM33.0522 20.2677C30.5437 20.761 27.9652 20.7424 25.4635 20.213L24.6871 23.8819C27.683 24.5158 30.7715 24.538 33.7757 23.9473L33.0522 20.2677ZM25.4465 20.2096C23.6897 19.8549 21.9936 19.2314 20.415 18.3589L18.6011 21.6411C20.5131 22.6977 22.5704 23.4546 24.7042 23.8854L25.4465 20.2096Z" fill="#F4BD15"/>
</svg>
