<svg width="275" height="267" viewBox="0 0 275 267" fill="none" xmlns="http://www.w3.org/2000/svg">
<path opacity="0.6" d="M139.651 243.198C196.694 243.198 242.938 240.872 242.938 238.004C242.938 235.135 196.694 232.81 139.651 232.81C82.6065 232.81 36.3633 235.135 36.3633 238.004C36.3633 240.872 82.6065 243.198 139.651 243.198Z" fill="#B3B9C0"/>
<path d="M49.9532 52.3951C40.9414 60.9657 31.5529 74.4695 27.7062 86.1342C21.78 104.105 22.528 121.219 23.9096 140.04C25.2912 158.862 31.8714 177.627 44.4477 192.013C56.1198 205.364 72.4284 214.394 89.6483 219.608C106.868 224.82 125.042 226.419 143.077 226.695C161.062 226.97 179.451 225.882 196.14 219.368C214.771 212.098 230.342 198.235 240.686 181.526C251.03 164.817 256.297 145.386 257.256 125.913C258.232 106.095 254.756 85.9025 245.772 68.0813C236.788 50.2607 222.122 34.9349 203.76 26.2258C184.129 16.915 161.173 15.5085 139.721 19.53C121.282 22.9871 105.832 31.1216 88.8376 38.2302C75.3324 43.881 61.4828 41.4294 49.9532 52.3951Z" fill="#FFE6B7"/>
<path d="M137.78 188.661C137.78 188.661 138.641 218.996 139.225 225.354C139.839 232.028 139.225 236.654 139.225 236.654H147.865C147.865 236.654 146.321 230.204 143.378 229.772C143.378 229.772 141.503 226.933 140.6 213.33C139.698 199.726 140.204 187.697 140.204 187.697L137.78 188.661Z" fill="#2D0D2C"/>
<path d="M130.491 190.14C133.228 193.721 133.313 202.486 135.782 212.515C138.251 222.543 139.65 233.65 139.65 233.65L139.506 216.251C139.506 216.251 138.5 214.973 136.397 204.705C134.294 194.437 133.471 190.14 133.471 190.14H130.491Z" fill="#2D0D2C"/>
<path d="M131.977 187.29C131.977 187.29 132.897 219.669 133.52 226.456C134.175 233.579 133.52 238.518 133.52 238.518H142.742C142.742 238.518 141.094 231.632 137.952 231.172C137.952 231.172 135.951 228.142 134.987 213.622C134.023 199.102 134.564 186.261 134.564 186.261L131.977 187.29Z" fill="#422241"/>
<path d="M124.197 188.869C127.119 192.692 127.209 202.047 129.845 212.752C132.48 223.456 133.974 235.31 133.974 235.31L133.819 216.739C133.819 216.739 132.746 215.375 130.501 204.416C128.256 193.456 127.378 188.869 127.378 188.869H124.197Z" fill="#422241"/>
<path d="M105.642 187.227C105.642 187.227 103.073 217.791 100.532 223.989C97.9918 230.187 95.0064 235.311 95.0064 235.311H87.6276C87.6276 235.311 88.2634 228.848 93.5203 228.416C93.5203 228.416 98.9917 225.572 100.604 211.943C102.217 198.314 101.313 186.262 101.313 186.262L105.642 187.227Z" fill="#2D0D2C"/>
<path d="M118.661 188.709C113.772 192.297 113.079 197.799 108.668 207.847C104.258 217.895 100.532 223.989 100.532 223.989L102.559 214.869C102.559 214.869 104.355 213.589 108.112 203.302C111.869 193.015 113.338 188.709 113.338 188.709H118.661Z" fill="#2D0D2C"/>
<path d="M89.0433 182.542C91.4666 175.635 88.2513 154.904 81.8664 133.557C78.6456 122.79 85.6718 116.124 91.4666 114.725C96.4606 113.519 116.379 109.582 117.621 129.369C118.863 149.156 118.832 173.205 124.45 181.706L89.0433 182.542Z" fill="#422241"/>
<path d="M93.7057 176.867C93.7057 176.867 93.7057 156.341 89.4773 140.331C86.103 127.555 87.9895 120.221 92.8559 118.474C97.7223 116.726 113.54 112.819 115.03 133.626C116.52 154.433 116.535 172.214 116.571 173.036C116.606 173.856 95.3958 175.225 93.7057 176.867Z" fill="#7B4D79"/>
<path d="M96.8302 187.29C96.8302 187.29 94.0929 219.853 91.3869 226.456C88.6804 233.058 85.5002 238.518 85.5002 238.518H77.6391C77.6391 238.518 78.3167 231.632 83.9173 231.172C83.9173 231.172 89.7468 228.142 91.4644 213.622C93.1821 199.102 92.2196 186.261 92.2196 186.261L96.8302 187.29Z" fill="#422241"/>
<path d="M114.178 189.24C128.703 189.24 140.478 186.925 140.478 184.069C140.478 181.213 128.703 178.897 114.178 178.897C99.6525 178.897 87.8773 181.213 87.8773 184.069C87.8773 186.925 99.6525 189.24 114.178 189.24Z" fill="#422241"/>
<path d="M115.03 186.261C128.043 186.261 138.593 184.555 138.593 182.45C138.593 180.345 128.043 178.639 115.03 178.639C102.016 178.639 91.4666 180.345 91.4666 182.45C91.4666 184.555 102.016 186.261 115.03 186.261Z" fill="#7B4D79"/>
<path d="M110.701 188.869C105.492 192.692 104.754 198.554 100.055 209.259C95.3568 219.963 91.3863 226.456 91.3863 226.456L93.5462 216.739C93.5462 216.739 95.4596 215.375 99.462 204.416C103.464 193.456 105.031 188.869 105.031 188.869H110.701Z" fill="#422241"/>
<path d="M172.923 159.339C172.923 159.339 161.032 155.962 155.463 156.861C149.894 157.76 148.517 167.982 147.815 174.801C147.114 181.62 145.625 205.485 142.893 208.513C140.161 211.541 131.453 214.17 131.453 214.17C131.453 214.17 133.517 216.463 136.037 217.126C138.557 217.789 141.797 214.888 145.57 214.295C149.856 213.621 151.931 213.203 151.149 210.485C150.366 207.767 149.906 201.289 155.415 189.856C160.923 178.422 160.748 167.965 159.602 167.226C159.602 167.226 166.46 172.454 171.502 175.706C176.544 178.957 179.086 181.714 179.086 181.714L172.923 159.339Z" fill="#F2C2B0"/>
<path opacity="0.85" d="M172.923 159.339C172.923 159.339 161.032 155.962 155.463 156.861C149.894 157.76 148.517 167.982 147.815 174.801C147.114 181.62 145.625 205.485 142.893 208.513C140.161 211.541 131.453 214.17 131.453 214.17C131.453 214.17 133.517 216.463 136.037 217.126C138.557 217.789 141.797 214.888 145.57 214.295C149.856 213.621 151.931 213.203 151.149 210.485C150.366 207.767 149.906 201.289 155.415 189.856C160.923 178.422 160.748 167.965 159.602 167.226C159.602 167.226 166.46 172.454 171.502 175.706C176.544 178.957 179.086 181.714 179.086 181.714L172.923 159.339Z" fill="#DB9786"/>
<path d="M125.085 214.285C126.087 214.096 127.124 212.341 128.877 213.19C130.629 214.039 133.937 213.544 133.937 213.544C133.937 213.544 134.517 213.642 135.245 214.985C137.172 218.539 140.6 215.811 142.987 215.301C148.789 214.062 151.741 213.416 151.037 215.116C151.037 215.116 150.138 217.25 149.094 217.546C146.617 218.249 140.133 225.565 140.133 225.565L139.223 224.879L145.62 216.534C145.62 216.534 144.218 215.469 138.15 219.518C135.496 221.29 133.078 220.25 133.078 220.25L125.085 214.285Z" fill="#E85D53"/>
<path d="M189.983 123.33C189.983 123.33 188.785 130.084 187.9 138.497C187.015 146.91 184.01 155.073 179.131 157.161C174.252 159.248 152.817 167.718 152.817 167.718L150.783 163.398C150.783 163.398 161.527 159.189 168.266 153.891C175.006 148.593 177.654 149.961 177.654 149.961C177.654 149.961 179.554 136.976 181.078 131.125C182.602 125.275 184.84 121.806 187.936 121.259C187.936 121.259 190.239 121.809 189.983 123.33Z" fill="#F2C2B0"/>
<path opacity="0.85" d="M189.983 123.33C189.983 123.33 188.785 130.084 187.9 138.497C187.015 146.91 184.01 155.073 179.131 157.161C174.252 159.248 152.817 167.718 152.817 167.718L150.783 163.398C150.783 163.398 161.527 159.189 168.266 153.891C175.006 148.593 177.654 149.961 177.654 149.961C177.654 149.961 182.526 145.394 184.05 139.544C185.574 133.694 190.239 121.809 189.983 123.33Z" fill="#DB9786"/>
<path d="M175.355 188.661C175.355 188.661 174.494 218.996 173.909 225.354C173.296 232.028 173.909 236.654 173.909 236.654H165.27C165.27 236.654 166.814 230.204 169.757 229.772C169.757 229.772 171.632 226.933 172.534 213.33C173.437 199.726 172.931 187.697 172.931 187.697L175.355 188.661Z" fill="#2D0D2C"/>
<path d="M182.645 190.14C179.907 193.721 179.823 202.486 177.354 212.515C174.885 222.543 173.485 233.65 173.485 233.65L173.63 216.251C173.63 216.251 174.635 214.973 176.738 204.705C178.841 194.437 179.665 190.14 179.665 190.14H182.645Z" fill="#2D0D2C"/>
<path d="M181.157 187.29C181.157 187.29 180.238 219.669 179.615 226.456C178.96 233.579 179.615 238.518 179.615 238.518H170.393C170.393 238.518 172.041 231.632 175.183 231.172C175.183 231.172 177.184 228.142 178.148 213.622C179.111 199.102 178.571 186.261 178.571 186.261L181.157 187.29Z" fill="#422241"/>
<path d="M188.938 188.869C186.016 192.692 185.926 202.047 183.291 212.752C180.655 223.456 179.161 235.31 179.161 235.31L179.316 216.739C179.316 216.739 180.389 215.375 182.634 204.416C184.879 193.456 185.758 188.869 185.758 188.869H188.938Z" fill="#422241"/>
<path d="M207.494 187.227C207.494 187.227 210.063 217.791 212.603 223.989C215.144 230.187 218.129 235.311 218.129 235.311H225.508C225.508 235.311 224.872 228.848 219.615 228.416C219.615 228.416 214.144 225.572 212.531 211.943C210.918 198.314 211.823 186.262 211.823 186.262L207.494 187.227Z" fill="#2D0D2C"/>
<path d="M194.473 188.709C199.363 192.297 200.056 197.799 204.466 207.847C208.877 217.895 212.603 223.989 212.603 223.989L210.576 214.869C210.576 214.869 208.78 213.589 205.023 203.302C201.266 193.015 199.796 188.709 199.796 188.709H194.473Z" fill="#2D0D2C"/>
<path d="M224.091 182.542C221.668 175.635 224.883 154.904 231.268 133.557C234.489 122.79 227.463 116.124 221.668 114.725C216.674 113.519 196.755 109.582 195.513 129.369C194.272 149.156 194.303 173.205 188.685 181.706L224.091 182.542Z" fill="#422241"/>
<path d="M219.43 176.867C219.43 176.867 219.43 156.341 223.658 140.331C227.032 127.555 225.146 120.221 220.279 118.474C215.413 116.727 204.017 113.29 202.527 134.097C201.037 154.904 200.263 171.736 200.227 172.557C200.191 173.378 217.74 175.225 219.43 176.867Z" fill="#7B4D79"/>
<path d="M216.305 187.29C216.305 187.29 219.042 219.853 221.748 226.456C224.455 233.058 227.635 238.518 227.635 238.518H235.496C235.496 238.518 234.819 231.632 229.218 231.172C229.218 231.172 223.389 228.142 221.671 213.622C219.953 199.102 220.916 186.261 220.916 186.261L216.305 187.29Z" fill="#422241"/>
<path d="M198.958 189.24C213.483 189.24 225.258 186.925 225.258 184.069C225.258 181.213 213.483 178.897 198.958 178.897C184.432 178.897 172.657 181.213 172.657 184.069C172.657 186.925 184.432 189.24 198.958 189.24Z" fill="#422241"/>
<path d="M198.106 186.261C211.119 186.261 221.669 184.555 221.669 182.45C221.669 180.345 211.119 178.639 198.106 178.639C185.092 178.639 174.543 180.345 174.543 182.45C174.543 184.555 185.092 186.261 198.106 186.261Z" fill="#7B4D79"/>
<path d="M202.434 188.869C207.643 192.692 208.381 198.554 213.079 209.259C217.778 219.963 221.748 226.456 221.748 226.456L219.589 216.739C219.589 216.739 217.675 215.375 213.673 204.416C209.67 193.456 208.104 188.869 208.104 188.869H202.434Z" fill="#422241"/>
<path d="M189.633 105.642C189.063 110.217 193.04 115.065 193.89 116.117C193.89 116.117 192.128 114.584 197.169 114.937C202.412 115.305 207.776 117.311 207.776 117.311C207.776 117.311 212.979 112.535 212.536 105.194C212.093 97.8534 209.299 94.391 205.674 92.5711C202.05 90.7518 197.267 91.3792 197.267 91.3792C197.267 91.3792 190.145 101.524 189.633 105.642Z" fill="#3D0900"/>
<path d="M201.423 87.1382C202.392 87.9424 201.676 90.7154 201.117 92.0536C200.557 93.3918 196.423 97.2831 193.616 100.738C190.81 104.193 193.385 112.653 193.911 115.44C193.911 115.44 192.362 115.223 190.293 113.043C189.044 111.726 188.319 109.741 188.874 106.785C189.428 103.83 189.719 92.036 192.352 88.8496C194.984 85.6638 199.128 85.2355 201.423 87.1382Z" fill="#944031"/>
<path d="M201.643 87.8228C202.613 88.627 201.897 91.4 201.337 92.7382C200.778 94.0764 196.644 97.9677 193.837 101.423C191.03 104.878 193.605 113.337 194.131 116.124C194.131 116.124 192.583 115.907 190.514 113.727C189.265 112.41 188.539 110.425 189.094 107.47C189.649 104.515 189.939 92.7206 192.572 89.5342C195.205 86.3479 199.349 85.9207 201.643 87.8228Z" fill="#763122"/>
<path d="M217.65 120.145C217.65 123.59 216.338 129.038 214.971 133.931C213.922 137.676 212.839 141.098 212.273 143.057C210.662 141.971 188.072 139.337 186.596 135.871C185.781 133.96 187.992 122.075 187.113 121.462C188.311 120.564 195.527 118.113 195.756 117.225C195.955 116.443 195.895 115.232 195.706 113.91C195.269 110.764 194.116 107.005 194.116 107.005L206.919 103.038L204.673 115.995C204.673 115.995 215.091 119.233 217.65 120.145Z" fill="#F2C2B0"/>
<path opacity="0.85" d="M217.65 120.145C217.65 123.59 216.338 129.038 214.971 133.932C212.59 134.564 210.091 134.815 207.621 134.733C202.814 134.578 197.854 133.246 193.306 134.752C193.306 128.421 200.424 127.595 200.325 121.258C200.315 120.597 198.982 115.42 198.535 114.923C197.924 114.233 196.88 114.151 195.966 113.967C195.881 113.948 195.792 113.934 195.707 113.91C195.27 110.763 194.116 107.004 194.116 107.004L206.92 103.037L204.673 115.994C204.673 115.994 215.091 119.233 217.65 120.145Z" fill="#DB9786"/>
<path d="M211.814 100.542C211.119 102.916 210.246 105.181 209.402 106.516C207.813 109.036 206.348 109.329 205.955 109.711C202.525 113.089 194.881 114.278 191.848 112.882C191.542 112.74 191.283 112.575 191.081 112.382C190.89 112.205 190.747 111.999 190.66 111.763C190.33 110.86 188.813 105.006 189.285 103.252C189.757 101.493 191.173 98.201 191.205 97.6708C191.236 97.2019 191.288 95.7596 191.461 95.1503C192.397 91.8742 194.25 90.6113 195.585 90.0319C196.403 89.6741 197.031 89.578 197.13 89.428C198.131 87.991 196.018 87.5162 197.542 86.8204C197.761 86.987 197.954 87.1264 198.076 87.222C199.862 88.6264 201.528 91.0588 203.392 92.3623C205.817 94.0604 207.547 96.4677 209.655 98.5043C210.37 99.1969 211.096 99.8639 211.814 100.542Z" fill="#F2C2B0"/>
<path opacity="0.85" d="M211.814 100.542C211.119 102.916 210.246 105.182 209.402 106.517C207.813 109.036 206.348 109.329 205.955 109.711C202.525 113.09 194.881 114.278 191.848 112.882C191.975 112.615 192.066 112.339 192.095 112.053C192.143 111.531 191.962 111.018 191.896 110.496C191.833 109.975 191.931 109.375 192.372 109.074C192.762 108.811 193.319 108.858 193.698 108.575C194.161 108.229 194.162 107.565 194.116 107.002C194.017 105.635 193.915 104.273 193.812 102.907C195.352 101.688 195.87 101.745 196.227 99.8768C196.781 97.006 195.504 95.9433 197.267 91.3787C198.085 91.0209 197.032 89.577 197.131 89.4275C198.131 87.9905 196.018 87.5157 197.543 86.8199C197.762 86.9866 197.954 87.1259 198.077 87.2215C199.862 88.6259 201.529 91.0583 203.392 92.3618C205.817 94.0599 207.548 96.4672 209.656 98.5039C210.369 99.197 211.096 99.864 211.814 100.542Z" fill="#EDA391"/>
<path d="M195.687 96.7784C195.687 96.7784 196.796 97.7439 195.507 99.842C194.594 101.328 192.497 102.333 192.497 102.333C192.497 102.333 193.248 102.824 194.375 103.718C194.375 103.718 194.772 103.559 195.617 101.984C196.463 100.409 197.19 97.9148 195.687 96.7784Z" fill="#C76760"/>
<path d="M201.505 102.011C201.505 102.011 200.815 102.039 200.227 101.505C200.227 101.505 200.28 102.945 201.505 102.011Z" fill="#C76760"/>
<path d="M193.258 99.4831C193.258 99.4831 192.662 99.4837 192.138 99.2209C192.138 99.2209 192.378 100.403 193.258 99.4831Z" fill="#C76760"/>
<path d="M198.044 97.4278C198.044 97.4278 197.499 96.6909 198 96.3032C198 96.3032 200.884 96.3054 202.838 98.42C202.838 98.42 202.991 98.7233 202.512 98.4627C202.032 98.2016 199.896 97.187 198.044 97.4278Z" fill="#944031"/>
<path d="M194.221 95.9123C194.221 95.9123 194.065 96.27 193.704 96.5354C193.704 96.5354 192.617 95.5486 191.863 95.4381C191.863 95.4381 191.946 95.2004 192.267 95.2058C192.58 95.2111 193.4 95.2015 194.221 95.9123Z" fill="#944031"/>
<path d="M199.094 99.9457C199.061 100.366 199.386 100.732 199.819 100.764C200.252 100.796 200.629 100.481 200.661 100.06C200.694 99.6402 200.37 99.2739 199.937 99.2424C199.505 99.2109 199.127 99.526 199.094 99.9457Z" fill="#4B2B22"/>
<path d="M191.784 97.9586C191.751 98.3789 192.076 98.7452 192.509 98.7767C192.942 98.8088 193.319 98.4937 193.351 98.0734C193.384 97.6532 193.06 97.2869 192.627 97.2553C192.195 97.2238 191.817 97.5389 191.784 97.9586Z" fill="#4B2B22"/>
<path d="M197.76 104.957C197.76 104.957 196.286 105.194 195.132 105.057C193.346 104.844 191.975 103.844 191.975 103.844L192.394 104.411C192.507 104.785 192.625 107.736 191.86 108.675C191.86 108.675 192.927 109.372 194.974 108.619C197.897 107.545 197.76 104.957 197.76 104.957Z" fill="#B6262E"/>
<path d="M193.843 105.468L192.984 105.711C192.984 105.711 193.06 106.918 192.776 107.895C192.776 107.895 192.9 108.16 193.421 108.236C193.942 108.311 195.064 108.31 195.787 107.876C196.51 107.442 197.38 106.96 197.436 105.36C197.436 105.36 194.794 105.676 193.843 105.468Z" fill="#5E3948"/>
<path d="M192.984 105.711L192.842 104.749C193.392 105.041 194.124 105.348 195.155 105.468C196.169 105.586 196.817 105.397 197.204 105.335C197.19 105.504 197.174 105.535 197.136 105.649C197.063 105.873 195.962 106.138 194.827 106.103C193.845 106.072 192.984 105.711 192.984 105.711Z" fill="white"/>
<path d="M193.552 108.513C194.271 107.018 196.317 106.815 197.048 106.792C196.651 107.335 196.01 107.877 194.971 108.237C194.421 108.427 193.948 108.502 193.552 108.513Z" fill="#EB595E"/>
<path d="M195.787 107.876C195.546 108.009 195.276 108.131 194.971 108.237C193.593 108.713 192.872 108.582 192.49 108.421C192.714 108.186 192.776 107.895 192.776 107.895C193.683 108.393 195.049 108.097 195.787 107.876Z" fill="white"/>
<path d="M202.029 100.707C202.029 100.707 202.204 100.72 202.316 100.658C202.316 100.658 202.176 100.63 201.958 100.46C201.958 100.46 202.161 100.498 202.397 100.439C202.397 100.439 202.099 100.297 201.887 100.181C201.887 100.181 202.181 100.144 202.433 100.121C202.433 100.121 202.063 100.092 201.669 99.8784C201.669 99.8784 202.19 99.9291 202.526 99.8575C202.526 99.8575 202.085 99.8223 201.376 99.5938C201.376 99.5938 201.741 99.7016 202.073 99.5313C202.073 99.5313 201.711 99.5622 201.041 99.3193C201.041 99.3193 201.352 99.4111 201.684 99.275C201.684 99.275 201.305 99.2173 200.533 99.1874C200.533 99.1874 200.792 99.2146 201.298 99.6514C201.804 100.088 202.029 100.707 202.029 100.707Z" fill="#4B2B22"/>
<path d="M198.788 99.174C198.788 99.174 199.363 98.9006 200.065 98.9642C200.924 99.0416 201.95 99.558 202.048 100.898C202.048 100.898 201.667 99.9542 200.762 99.4645C199.857 98.9738 198.788 99.174 198.788 99.174Z" fill="#4B2B22"/>
<path d="M191.674 97.3493C191.674 97.3493 191.597 97.2612 191.605 97.1608C191.605 97.1608 191.68 97.2206 191.9 97.2371C191.9 97.2371 191.793 97.1485 191.75 96.9813C191.75 96.9813 191.978 97.0588 192.152 97.1042C192.152 97.1042 192.07 96.9194 191.993 96.7661C191.993 96.7661 192.157 96.952 192.479 97.0379C192.479 97.0379 192.24 96.7816 192.171 96.552C192.171 96.552 192.366 96.7736 192.82 97.0241C192.82 97.0241 192.595 96.8895 192.607 96.6017C192.607 96.6017 192.719 96.8201 193.168 97.0401C193.168 97.0401 192.977 96.9253 192.96 96.6583C192.96 96.6583 193.15 96.8318 193.467 97.2393C193.467 97.2393 193.346 97.1132 192.802 97.1031C192.26 97.0924 191.674 97.3493 191.674 97.3493Z" fill="#4B2B22"/>
<path d="M194.14 98.193C194.14 98.193 194.143 97.7076 193.826 97.3594C193.438 96.9333 192.633 96.685 191.513 97.4561C191.513 97.4561 192.42 97.0855 193.158 97.2831C193.897 97.4807 194.14 98.193 194.14 98.193Z" fill="#4B2B22"/>
<mask id="mask0_42_2930" style="mask-type:luminance" maskUnits="userSpaceOnUse" x="194" y="85" width="23" height="34">
<path d="M195.8 91.6072C197.254 92.5972 199.984 92.2715 201.995 92.9753C206.666 94.6088 207.267 100.187 206.918 103.037C206.419 107.122 203.904 116.516 201.805 118.281C201.805 118.281 212.364 119.464 214.409 115.969C216.455 112.475 216.422 104.461 216.403 100.531C216.353 90.4709 214.222 88.7514 209.156 86.6015C203.542 84.2193 194.545 85.518 194.379 88.1971C194.343 88.7941 194.382 90.6417 195.8 91.6072Z" fill="white"/>
</mask>
<g mask="url(#mask0_42_2930)">
<path d="M195.826 90.8079C197.28 91.7979 199.985 92.2721 201.996 92.9759C206.667 94.6094 207.268 100.188 206.919 103.038C206.42 107.123 203.904 116.516 201.806 118.281C201.806 118.281 212.365 119.464 214.41 115.97C216.455 112.475 216.423 104.462 216.404 100.532C216.354 90.4715 214.223 88.752 209.157 86.6021C203.543 84.2199 194.546 85.5186 194.38 88.1977C194.343 88.7942 194.407 89.8419 195.826 90.8079Z" fill="#944031"/>
</g>
<mask id="mask1_42_2930" style="mask-type:luminance" maskUnits="userSpaceOnUse" x="194" y="85" width="23" height="34">
<path d="M195.8 91.6072C197.254 92.5972 199.984 92.2715 201.995 92.9753C206.666 94.6088 207.267 100.187 206.918 103.037C206.419 107.122 203.904 116.516 201.805 118.281C201.805 118.281 212.364 119.464 214.409 115.969C216.455 112.475 216.422 104.461 216.403 100.531C216.353 90.4709 214.222 88.7514 209.156 86.6015C203.542 84.2193 194.545 85.518 194.379 88.1971C194.343 88.7941 194.382 90.6417 195.8 91.6072Z" fill="white"/>
</mask>
<g mask="url(#mask1_42_2930)">
<path d="M199.978 85.1234C202.96 85.965 204.54 86.3425 206.597 87.0848C209.135 88.0006 211.064 89.8434 212.638 91.9826C214.055 93.9066 214.589 96.3112 214.838 98.6635C215.641 106.248 216.082 113.216 211.875 119.654" stroke="#7C3426" stroke-miterlimit="10"/>
</g>
<mask id="mask2_42_2930" style="mask-type:luminance" maskUnits="userSpaceOnUse" x="194" y="85" width="23" height="34">
<path d="M195.8 91.6072C197.254 92.5972 199.984 92.2715 201.995 92.9753C206.666 94.6088 207.267 100.187 206.918 103.037C206.419 107.122 203.904 116.516 201.805 118.281C201.805 118.281 212.364 119.464 214.409 115.969C216.455 112.475 216.422 104.461 216.403 100.531C216.353 90.4709 214.222 88.7514 209.156 86.6015C203.542 84.2193 194.545 85.518 194.379 88.1971C194.343 88.7941 194.382 90.6417 195.8 91.6072Z" fill="white"/>
</mask>
<g mask="url(#mask2_42_2930)">
<path d="M197.04 85.6718C200.792 86.5908 204.702 87.5893 207.593 90.0874C210.005 92.1716 211.473 95.1406 212.169 98.2021C212.864 101.263 212.837 104.435 212.643 107.565C212.357 112.173 211.712 116.76 210.715 121.274" stroke="#9E4536" stroke-width="0.5" stroke-miterlimit="10"/>
</g>
<mask id="mask3_42_2930" style="mask-type:luminance" maskUnits="userSpaceOnUse" x="194" y="85" width="23" height="34">
<path d="M195.8 91.6072C197.254 92.5972 199.984 92.2715 201.995 92.9753C206.666 94.6088 207.267 100.187 206.918 103.037C206.419 107.122 203.904 116.516 201.805 118.281C201.805 118.281 212.364 119.464 214.409 115.969C216.455 112.475 216.422 104.461 216.403 100.531C216.353 90.4709 214.222 88.7514 209.156 86.6015C203.542 84.2193 194.545 85.518 194.379 88.1971C194.343 88.7941 194.382 90.6417 195.8 91.6072Z" fill="white"/>
</mask>
<g mask="url(#mask3_42_2930)">
<path d="M195.024 85.1293C195.503 87.269 197.298 88.8977 199.194 90.0837C201.09 91.2697 203.192 92.1738 204.881 93.6257C207.319 95.7222 208.685 98.8301 209.031 101.974C209.376 105.118 208.768 108.303 207.744 111.304C207.197 112.911 206.528 114.484 206.147 116.135C205.767 117.786 205.69 119.556 206.314 121.135" stroke="#7C3426" stroke-miterlimit="10"/>
</g>
<mask id="mask4_42_2930" style="mask-type:luminance" maskUnits="userSpaceOnUse" x="194" y="85" width="23" height="34">
<path d="M195.8 91.6072C197.254 92.5972 199.984 92.2715 201.995 92.9753C206.666 94.6088 207.267 100.187 206.918 103.037C206.419 107.122 203.904 116.516 201.805 118.281C201.805 118.281 212.364 119.464 214.409 115.969C216.455 112.475 216.422 104.461 216.403 100.531C216.353 90.4709 214.222 88.7514 209.156 86.6015C203.542 84.2193 194.545 85.518 194.379 88.1971C194.343 88.7941 194.382 90.6417 195.8 91.6072Z" fill="white"/>
</mask>
<g mask="url(#mask4_42_2930)">
<path d="M207.308 85.8411C209.904 87.0239 212.495 88.5404 213.966 90.9301C215.031 92.6597 215.415 94.6996 215.648 96.7016C216.471 103.765 215.63 111.007 213.208 117.716" stroke="#7C3426" stroke-width="0.5" stroke-miterlimit="10"/>
</g>
<mask id="mask5_42_2930" style="mask-type:luminance" maskUnits="userSpaceOnUse" x="194" y="85" width="23" height="34">
<path d="M195.8 91.6072C197.254 92.5972 199.984 92.2715 201.995 92.9753C206.666 94.6088 207.267 100.187 206.918 103.037C206.419 107.122 203.904 116.516 201.805 118.281C201.805 118.281 212.364 119.464 214.409 115.969C216.455 112.475 216.422 104.461 216.403 100.531C216.353 90.4709 214.222 88.7514 209.156 86.6015C203.542 84.2193 194.545 85.518 194.379 88.1971C194.343 88.7941 194.382 90.6417 195.8 91.6072Z" fill="white"/>
</mask>
<g mask="url(#mask5_42_2930)">
<path d="M207.809 120.259C207.439 117.116 208.201 113.957 209.101 110.917C210 107.877 211.05 104.842 211.275 101.686C211.5 98.531 210.792 95.162 208.581 92.838C206.741 90.9028 204.108 89.9154 201.633 88.8362C199.158 87.757 196.612 86.398 195.319 84.082" stroke="#7C3426" stroke-width="0.5" stroke-miterlimit="10"/>
</g>
<mask id="mask6_42_2930" style="mask-type:luminance" maskUnits="userSpaceOnUse" x="194" y="85" width="23" height="34">
<path d="M195.8 91.6072C197.254 92.5972 199.984 92.2715 201.995 92.9753C206.666 94.6088 207.267 100.187 206.918 103.037C206.419 107.122 203.904 116.516 201.805 118.281C201.805 118.281 212.364 119.464 214.409 115.969C216.455 112.475 216.422 104.461 216.403 100.531C216.353 90.4709 214.222 88.7514 209.156 86.6015C203.542 84.2193 194.545 85.518 194.379 88.1971C194.343 88.7941 194.382 90.6417 195.8 91.6072Z" fill="white"/>
</mask>
<g mask="url(#mask6_42_2930)">
<path d="M204.06 121.629C205.336 117.163 206.379 112.636 207.182 108.068C207.687 105.2 208.096 102.254 207.533 99.3966C206.97 96.5397 205.272 93.7485 202.554 92.5251C201.328 91.9735 199.956 91.761 198.759 91.1511C196.017 89.7547 194.781 86.6538 193.768 83.8124" stroke="#9E4536" stroke-width="0.5" stroke-miterlimit="10"/>
</g>
<path d="M206.165 102.027C206.165 102.027 206.256 99.1537 209.178 99.1089C212.1 99.0635 211.143 103.586 207.965 104.837C206.126 105.561 205.473 105.91 205.473 105.91L206.165 102.027Z" fill="#F2C2B0"/>
<path opacity="0.85" d="M206.165 102.027C206.165 102.027 206.256 99.1537 209.178 99.1089C212.1 99.0635 211.143 103.586 207.965 104.837C206.126 105.561 205.473 105.91 205.473 105.91L206.165 102.027Z" fill="#EDA391"/>
<path d="M207.197 102.044C207.197 102.044 207.516 100.537 209.009 100.364C210.503 100.19 210.174 102.199 208.814 103.121C207.453 104.044 207.262 103.88 207.262 103.88C207.262 103.88 208.234 103.096 208.225 102.846C208.217 102.637 207.197 102.044 207.197 102.044Z" fill="#C3797A"/>
<path d="M204.673 94.4534C205.902 95.7825 206.315 97.1613 205.857 99.1456C205.4 101.13 206.052 102.331 206.052 102.331C206.052 102.331 206.369 100.818 207.54 99.1616C208.712 97.5062 204.673 94.4534 204.673 94.4534Z" fill="#944031"/>
<path d="M195.85 89.7334C198.249 92.5257 198.853 93.5451 201.765 94.9954C204.677 96.4458 206.168 99.0976 206.168 99.0976C206.168 99.0976 205.104 96.2941 202.919 94.5351C200.735 92.7756 199.57 91.5138 199.687 91.101C199.806 90.6882 195.85 89.7334 195.85 89.7334Z" fill="#944031"/>
<path d="M212.282 157.877C212.909 163.499 214.991 167.278 214.991 167.278C214.991 167.278 209.271 167.91 202.898 167.915C199.692 167.92 196.318 167.76 193.425 167.278C193.425 167.278 193.371 163.755 192.794 159.079C192.351 155.459 191.591 151.145 190.309 147.236C190.17 146.807 190.011 146.387 189.842 145.972C188.246 142.082 185.493 138.67 184.26 135.196C183.341 132.59 183.276 129.951 185.2 127.046C185.2 127.046 190.165 124.787 193.938 130.945C193.938 130.945 196.771 127.161 202.029 126.548C204.609 126.245 208.406 126.78 211.612 127.398C214.952 128.049 217.651 128.792 217.651 128.792C217.651 128.792 213.421 141.416 212.273 151.676C212.024 153.9 212.074 155.995 212.282 157.877Z" fill="#E85D53"/>
<path d="M201.651 182.517C199.499 182.618 197.391 182.411 195.358 182.001C186.486 180.225 178.961 174.68 174.831 174.791C174.831 174.791 174.623 162.399 170.393 159.938C170.393 159.938 186.149 158.355 192.794 159.079C192.908 159.088 193.022 159.103 193.132 159.117C196.134 159.498 200.413 159.214 204.126 158.799C208.381 158.321 211.895 157.679 211.895 157.679C211.965 157.679 212.099 157.746 212.283 157.877C213.64 158.822 217.651 163.2 218.292 169.173C219.017 175.949 214.991 181.875 201.651 182.517Z" fill="#E85D53"/>
<path opacity="0.38" d="M201.651 182.517C199.499 182.618 190.718 182.117 188.685 181.707C192.378 177.928 181.243 173.073 182.645 167.915C182.739 167.587 194.782 165.719 197.436 164.88C203.538 162.949 204.126 158.799 202.376 152.198C201.81 150.061 199.663 148.588 197.669 147.531C195.284 146.266 192.585 145.934 189.841 145.972C188.246 142.083 185.492 138.671 184.26 135.197C184.543 134.82 184.921 134.516 185.403 134.323C186.382 133.932 187.569 133.903 188.539 134.323C198.105 138.459 203.227 129.29 209.439 135.082C210.318 135.902 210.622 128.112 211.611 127.398C214.952 128.05 217.65 128.793 217.65 128.793C217.65 128.793 213.421 141.417 212.273 151.676C212.024 153.901 212.073 155.995 212.282 157.877C213.639 158.823 217.65 163.2 218.292 169.174C219.017 175.949 214.991 181.875 201.651 182.517Z" fill="#CE9DAA"/>
<path d="M211.541 123.902C211.541 123.902 213.548 120.815 216.009 120.015C218.47 119.214 221.902 121.218 219.416 126.788C216.93 132.359 200.642 146.313 200.642 146.313C200.642 146.313 187.011 151.186 167.318 150.183V145.989C167.318 145.989 177.257 145.456 186.595 141.987C192.734 139.707 197.867 139.305 197.867 139.305C197.867 139.305 209.878 125.909 211.541 123.902Z" fill="#F2C2B0"/>
<path opacity="0.85" d="M212.091 125.309C212.091 125.309 213.548 120.815 216.009 120.015C218.47 119.214 221.902 121.218 219.416 126.788C216.93 132.359 200.642 146.313 200.642 146.313C200.642 146.313 187.011 151.186 167.318 150.183L165.27 150.319C165.27 150.319 182.174 148.926 191.513 145.457C197.652 143.177 199.774 141.254 199.774 141.254C199.774 141.254 206.213 135.404 212.091 125.309Z" fill="#DB9786"/>
<mask id="mask7_42_2930" style="mask-type:luminance" maskUnits="userSpaceOnUse" x="151" y="144" width="18" height="7">
<path d="M168.88 145.864C168.88 145.864 165.181 146.398 163.356 145.722C161.073 144.876 158.605 144.488 157.81 144.488C157.016 144.488 155.375 145.188 154.527 146.165C153.68 147.142 151.986 150.072 151.986 150.072C151.986 150.072 152.886 150.072 153.733 150.072C153.733 150.072 154.475 150.535 155.322 150.329C155.322 150.329 156.593 150.434 157.492 150.382C158.393 150.329 161.396 150.123 163.144 150.021C164.891 149.918 167.318 150.183 167.318 150.183L168.88 145.864Z" fill="white"/>
</mask>
<g mask="url(#mask7_42_2930)">
<path d="M168.88 145.864C168.88 145.864 164.998 146.268 163.356 145.24C161.715 144.212 158.605 144.488 157.81 144.488C157.016 144.488 155.375 145.188 154.527 146.165C153.68 147.142 151.986 150.072 151.986 150.072C151.986 150.072 152.886 150.072 153.733 150.072C153.733 150.072 154.475 150.535 155.322 150.329C155.322 150.329 156.593 150.434 157.492 150.382C158.393 150.329 161.396 150.124 163.144 150.021C164.891 149.918 167.318 150.183 167.318 150.183L168.88 145.864Z" fill="#F2C2B0"/>
</g>
<mask id="mask8_42_2930" style="mask-type:luminance" maskUnits="userSpaceOnUse" x="151" y="144" width="18" height="7">
<path d="M168.88 145.864C168.88 145.864 165.181 146.398 163.356 145.722C161.073 144.876 158.605 144.488 157.81 144.488C157.016 144.488 155.375 145.188 154.527 146.165C153.68 147.142 151.986 150.072 151.986 150.072C151.986 150.072 152.886 150.072 153.733 150.072C153.733 150.072 154.475 150.535 155.322 150.329C155.322 150.329 156.593 150.434 157.492 150.382C158.393 150.329 161.396 150.123 163.144 150.021C164.891 149.918 167.318 150.183 167.318 150.183L168.88 145.864Z" fill="white"/>
</mask>
<g mask="url(#mask8_42_2930)">
<path d="M152.787 150.952C153.07 149.902 154.989 147.327 155.761 146.541" stroke="#CFA899" stroke-miterlimit="10"/>
</g>
<mask id="mask9_42_2930" style="mask-type:luminance" maskUnits="userSpaceOnUse" x="151" y="144" width="18" height="7">
<path d="M168.88 145.864C168.88 145.864 165.181 146.398 163.356 145.722C161.073 144.876 158.605 144.488 157.81 144.488C157.016 144.488 155.375 145.188 154.527 146.165C153.68 147.142 151.986 150.072 151.986 150.072C151.986 150.072 152.886 150.072 153.733 150.072C153.733 150.072 154.475 150.535 155.322 150.329C155.322 150.329 156.593 150.434 157.492 150.382C158.393 150.329 161.396 150.123 163.144 150.021C164.891 149.918 167.318 150.183 167.318 150.183L168.88 145.864Z" fill="white"/>
</mask>
<g mask="url(#mask9_42_2930)">
<path d="M155.75 151.122C156.272 149.886 157.296 147.954 158.432 147.201" stroke="#CFA899" stroke-miterlimit="10"/>
</g>
<mask id="mask10_42_2930" style="mask-type:luminance" maskUnits="userSpaceOnUse" x="151" y="144" width="18" height="7">
<path d="M168.88 145.864C168.88 145.864 165.181 146.398 163.356 145.722C161.073 144.876 158.605 144.488 157.81 144.488C157.016 144.488 155.375 145.188 154.527 146.165C153.68 147.142 151.986 150.072 151.986 150.072C151.986 150.072 152.886 150.072 153.733 150.072C153.733 150.072 154.475 150.535 155.322 150.329C155.322 150.329 156.593 150.434 157.492 150.382C158.393 150.329 161.396 150.123 163.144 150.021C164.891 149.918 167.318 150.183 167.318 150.183L168.88 145.864Z" fill="white"/>
</mask>
<g mask="url(#mask10_42_2930)">
<path d="M153.711 151.134C154.233 149.899 156.408 147.291 157.544 146.538" stroke="#CFA899" stroke-miterlimit="10"/>
</g>
<mask id="mask11_42_2930" style="mask-type:luminance" maskUnits="userSpaceOnUse" x="151" y="144" width="18" height="7">
<path d="M168.88 145.864C168.88 145.864 165.181 146.398 163.356 145.722C161.073 144.876 158.605 144.488 157.81 144.488C157.016 144.488 155.375 145.188 154.527 146.165C153.68 147.142 151.986 150.072 151.986 150.072C151.986 150.072 152.886 150.072 153.733 150.072C153.733 150.072 154.475 150.535 155.322 150.329C155.322 150.329 156.593 150.434 157.492 150.382C158.393 150.329 161.396 150.123 163.144 150.021C164.891 149.918 167.318 150.183 167.318 150.183L168.88 145.864Z" fill="white"/>
</mask>
<g mask="url(#mask11_42_2930)">
<path d="M159.694 150.771C159.573 150.103 158.978 149.54 158.286 149.442" stroke="#CFA899" stroke-miterlimit="10"/>
</g>
<path d="M164.515 166.568C164.515 166.568 152.684 170.143 148.558 173.882C144.431 177.622 149.108 186.877 152.409 192.934C155.711 198.991 168.401 220.103 167.85 224.093C167.3 228.082 161.213 234.519 161.213 234.519C161.213 234.519 164.24 235.321 166.716 234.519C169.192 233.717 169.743 228.909 173.044 227.04C176.345 225.17 177.721 222.713 175.52 220.869C173.319 219.025 169.244 213.877 167.318 201.393C165.392 188.91 159.287 180.293 157.912 180.293C157.912 180.293 166.604 180.965 172.657 180.965C178.71 180.965 182.398 181.896 182.398 181.896L164.515 166.568Z" fill="#F2C2B0"/>
<path d="M156.399 238.518C157.071 237.772 156.783 235.769 158.704 235.395C160.624 235.023 162.925 232.663 162.925 232.663C162.925 232.663 163.445 232.395 164.868 233.023C168.635 234.683 169.621 230.488 171.185 228.664C174.986 224.231 176.91 221.965 177.427 223.726C177.427 223.726 178.065 225.947 177.427 226.803C175.914 228.832 175.41 238.472 175.41 238.472H174.258L174.043 228.071C174.043 228.071 172.262 228.063 170.025 234.875C169.047 237.854 166.481 238.471 166.481 238.471L156.399 238.518Z" fill="#E85D53"/>
<path d="M137.529 233.104H135.163C134.649 233.104 134.232 232.699 134.232 232.199V197.364H138.46V232.199C138.46 232.699 138.043 233.104 137.529 233.104Z" fill="#422241"/>
<path d="M139.543 228.781H133.148C132.579 228.781 132.118 228.333 132.118 227.78V190.312H140.574V227.78C140.574 228.333 140.113 228.781 139.543 228.781Z" fill="#422241"/>
<path d="M140.484 218.401C139.614 217.725 150.645 218.063 151.863 222.964C153.081 227.864 156.737 232.427 160.218 233.103C162.43 233.533 163.377 235.395 163.773 236.697C163.973 237.351 163.459 238.004 162.757 238.004H149.337C148.733 238.004 148.255 237.514 148.282 236.929C148.414 234.043 148.317 226.344 143.509 226.344L140.484 218.401Z" fill="#512E50"/>
<path d="M140.549 218.401C139.679 217.725 147.685 218.063 148.904 222.964C150.122 227.864 153.777 232.427 157.258 233.103C159.47 233.533 160.417 235.395 160.813 236.697C161.013 237.351 160.499 238.004 159.796 238.004H146.377C145.773 238.004 145.295 237.514 145.322 236.929C145.454 234.043 145.357 226.344 140.549 226.344V218.401H140.549Z" fill="#422241"/>
<path d="M133.126 218.401C133.996 217.725 122.965 218.063 121.746 222.964C120.528 227.864 116.873 232.427 113.392 233.103C111.18 233.533 110.233 235.395 109.837 236.697C109.637 237.351 110.151 238.004 110.854 238.004H124.273C124.877 238.004 125.355 237.514 125.328 236.929C125.196 234.043 125.293 226.344 130.101 226.344L133.126 218.401Z" fill="#512E50"/>
<path d="M133.06 218.401C133.93 217.725 125.924 218.063 124.705 222.964C123.487 227.864 119.832 232.427 116.351 233.103C114.139 233.533 113.192 235.395 112.795 236.697C112.596 237.351 113.11 238.004 113.812 238.004H127.231C127.835 238.004 128.314 237.514 128.287 236.929C128.154 234.043 128.251 226.344 133.06 226.344V218.401Z" fill="#422241"/>
<mask id="mask12_42_2930" style="mask-type:luminance" maskUnits="userSpaceOnUse" x="76" y="153" width="121" height="58">
<path d="M83.6831 153.624C82.7684 153.504 76.401 201.71 76.401 201.71C76.401 201.71 81.4924 209.585 90.0488 208.549V206.28C90.0488 206.28 111.682 211.822 119.692 209.127V205.621C119.692 205.621 130.574 207.543 151.499 205.33L151.433 208.938C151.433 208.938 158.825 210.748 179.051 206.537L178.873 210.077C178.873 210.077 185.634 210.219 196.557 200.683L190.964 153.335C190.963 153.336 140.392 161.116 83.6831 153.624Z" fill="white"/>
</mask>
<g mask="url(#mask12_42_2930)">
<path d="M83.6831 153.624C82.7684 153.504 76.401 201.71 76.401 201.71C76.401 201.71 81.4924 209.585 90.0488 208.549V206.28C90.0488 206.28 111.682 211.822 119.692 209.127V205.621C119.692 205.621 132.128 207.643 151.499 205.33L150.811 209.541C150.811 209.541 156.857 213.444 179.051 206.537L178.873 210.077C178.873 210.077 185.634 210.219 196.557 200.683L190.964 153.335C190.964 153.335 140.392 161.116 83.6831 153.624Z" fill="#A0354C"/>
</g>
<mask id="mask13_42_2930" style="mask-type:luminance" maskUnits="userSpaceOnUse" x="76" y="153" width="121" height="58">
<path d="M83.6831 153.624C82.7684 153.504 76.401 201.71 76.401 201.71C76.401 201.71 81.4924 209.585 90.0488 208.549V206.28C90.0488 206.28 111.682 211.822 119.692 209.127V205.621C119.692 205.621 130.574 207.543 151.499 205.33L151.433 208.938C151.433 208.938 158.825 210.748 179.051 206.537L178.873 210.077C178.873 210.077 185.634 210.219 196.557 200.683L190.964 153.335C190.963 153.336 140.392 161.116 83.6831 153.624Z" fill="white"/>
</mask>
<g mask="url(#mask13_42_2930)">
<path d="M90.0487 206.28C90.0487 206.28 82.4087 204.727 79.5085 201.308C79.5085 201.308 81.7371 206.136 90.0487 208.549L93.5957 208.952L90.0487 206.28Z" fill="#A8A49E"/>
</g>
<mask id="mask14_42_2930" style="mask-type:luminance" maskUnits="userSpaceOnUse" x="76" y="153" width="121" height="58">
<path d="M83.6831 153.624C82.7684 153.504 76.401 201.71 76.401 201.71C76.401 201.71 81.4924 209.585 90.0488 208.549V206.28C90.0488 206.28 111.682 211.822 119.692 209.127V205.621C119.692 205.621 130.574 207.543 151.499 205.33L151.433 208.938C151.433 208.938 158.825 210.748 179.051 206.537L178.873 210.077C178.873 210.077 185.634 210.219 196.557 200.683L190.964 153.335C190.963 153.336 140.392 161.116 83.6831 153.624Z" fill="white"/>
</mask>
<g mask="url(#mask14_42_2930)">
<path d="M119.692 205.622C119.692 205.622 112.344 204.928 106.751 203.621C106.751 203.621 114.299 208.901 119.692 209.127V205.622Z" fill="#A8A49E"/>
</g>
<mask id="mask15_42_2930" style="mask-type:luminance" maskUnits="userSpaceOnUse" x="76" y="153" width="121" height="58">
<path d="M83.6831 153.624C82.7684 153.504 76.401 201.71 76.401 201.71C76.401 201.71 81.4924 209.585 90.0488 208.549V206.28C90.0488 206.28 111.682 211.822 119.692 209.127V205.621C119.692 205.621 130.574 207.543 151.499 205.33L151.433 208.938C151.433 208.938 158.825 210.748 179.051 206.537L178.873 210.077C178.873 210.077 185.634 210.219 196.557 200.683L190.964 153.335C190.963 153.336 140.392 161.116 83.6831 153.624Z" fill="white"/>
</mask>
<g mask="url(#mask15_42_2930)">
<path d="M151.499 205.33C151.499 205.33 160.718 205.33 166.104 203.219C166.104 203.219 162.243 208.322 151.433 208.938L151.499 205.33Z" fill="#A8A49E"/>
</g>
<mask id="mask16_42_2930" style="mask-type:luminance" maskUnits="userSpaceOnUse" x="76" y="153" width="121" height="58">
<path d="M83.6831 153.624C82.7684 153.504 76.401 201.71 76.401 201.71C76.401 201.71 81.4924 209.585 90.0488 208.549V206.28C90.0488 206.28 111.682 211.822 119.692 209.127V205.621C119.692 205.621 130.574 207.543 151.499 205.33L151.433 208.938C151.433 208.938 158.825 210.748 179.051 206.537L178.873 210.077C178.873 210.077 185.634 210.219 196.557 200.683L190.964 153.335C190.963 153.336 140.392 161.116 83.6831 153.624Z" fill="white"/>
</mask>
<g mask="url(#mask16_42_2930)">
<path d="M179.051 206.537C179.051 206.537 185.266 205.029 187.545 203.017C187.545 203.017 185.116 208.186 178.872 210.077L179.051 206.537Z" fill="#A8A49E"/>
</g>
<path d="M190.963 153.336C190.963 153.336 166.987 159.471 137.411 159.471C107.835 159.471 83.8585 153.336 83.8585 153.336C83.8585 153.336 107.835 147.201 137.411 147.201C166.987 147.201 190.963 153.336 190.963 153.336Z" fill="#B63E56"/>
<path d="M129.777 111.69C128.313 111.69 127.581 111.69 126.117 111.69C126.1 113.592 126.077 114.543 126.025 116.444C127.562 116.444 128.362 116.444 129.899 116.444C129.825 114.542 129.795 113.591 129.777 111.69Z" fill="#FBC281"/>
<path opacity="0.57" d="M129.835 113.275C128.325 113.275 127.57 113.275 126.06 113.275C126.054 113.547 126.049 113.683 126.037 113.955C127.56 113.955 128.339 113.955 129.863 113.955C129.847 113.683 129.841 113.547 129.835 113.275Z" fill="#DECDB1"/>
<path d="M130.136 111.69C128.385 111.69 127.509 111.69 125.758 111.69C125.751 112.385 125.745 112.731 125.731 113.425C127.498 113.425 128.401 113.425 130.167 113.425C130.15 112.731 130.143 112.384 130.136 111.69Z" fill="#FBC281"/>
<path d="M130.104 124.791C130.003 122.752 129.95 117.871 129.876 115.833C128.353 115.833 127.565 115.833 126.041 115.833C125.988 117.872 125.952 122.752 125.882 124.791C125.861 125.396 125.703 125.995 125.409 126.555C123.441 130.595 121.965 134.778 122.311 139.318C122.631 144.113 123.116 147.497 123.208 152.304C126.367 152.304 129.527 152.304 132.686 152.304C132.797 147.491 133.379 144.114 133.763 139.318C134.094 134.71 132.65 130.628 130.605 126.555C130.302 125.995 130.134 125.396 130.104 124.791Z" fill="#474565"/>
<mask id="mask17_42_2930" style="mask-type:luminance" maskUnits="userSpaceOnUse" x="122" y="115" width="12" height="38">
<path d="M130.104 124.791C130.003 122.752 129.95 117.871 129.876 115.833C128.353 115.833 127.565 115.833 126.041 115.833C125.988 117.872 125.952 122.752 125.882 124.791C125.861 125.396 125.703 125.995 125.409 126.555C123.441 130.595 121.965 134.778 122.311 139.318C122.631 144.113 123.116 147.497 123.208 152.304C126.367 152.304 129.527 152.304 132.686 152.304C132.797 147.491 133.379 144.114 133.763 139.318C134.094 134.71 132.65 130.628 130.605 126.555C130.302 125.995 130.134 125.396 130.104 124.791Z" fill="white"/>
</mask>
<g mask="url(#mask17_42_2930)">
<path opacity="0.22" d="M129.102 146.479C127.092 142.726 126.117 136.247 126.662 131.498C127.263 126.261 129.024 127.208 129.861 129.027C131.654 132.923 132.382 137.873 132.03 143.466C131.741 148.034 130.165 148.464 129.102 146.479Z" fill="white"/>
</g>
<mask id="mask18_42_2930" style="mask-type:luminance" maskUnits="userSpaceOnUse" x="122" y="115" width="12" height="38">
<path d="M130.104 124.791C130.003 122.752 129.95 117.871 129.876 115.833C128.353 115.833 127.565 115.833 126.041 115.833C125.988 117.872 125.952 122.752 125.882 124.791C125.861 125.396 125.703 125.995 125.409 126.555C123.441 130.595 121.965 134.778 122.311 139.318C122.631 144.113 123.116 147.497 123.208 152.304C126.367 152.304 129.527 152.304 132.686 152.304C132.797 147.491 133.379 144.114 133.763 139.318C134.094 134.71 132.65 130.628 130.605 126.555C130.302 125.995 130.134 125.396 130.104 124.791Z" fill="white"/>
</mask>
<g mask="url(#mask18_42_2930)">
<path d="M136.595 142.377C133.943 144.357 130.066 151.092 126.598 151.686C123.13 152.281 121.09 153.073 121.09 153.073C121.09 153.073 128.638 155.252 129.862 154.856C131.086 154.46 135.778 152.677 135.778 152.677L136.595 142.377Z" fill="#312F49"/>
</g>
<mask id="mask19_42_2930" style="mask-type:luminance" maskUnits="userSpaceOnUse" x="122" y="115" width="12" height="38">
<path d="M130.104 124.791C130.003 122.752 129.95 117.871 129.876 115.833C128.353 115.833 127.565 115.833 126.041 115.833C125.988 117.872 125.952 122.752 125.882 124.791C125.861 125.396 125.703 125.995 125.409 126.555C123.441 130.595 121.965 134.778 122.311 139.318C122.631 144.113 123.116 147.497 123.208 152.304C126.367 152.304 129.527 152.304 132.686 152.304C132.797 147.491 133.379 144.114 133.763 139.318C134.094 134.71 132.65 130.628 130.605 126.555C130.302 125.995 130.134 125.396 130.104 124.791Z" fill="white"/>
</mask>
<g mask="url(#mask19_42_2930)">
<path d="M133.374 148.193C129.758 148.193 126.142 148.193 122.527 148.193C122.182 143.662 121.697 140.534 121.543 135.993C125.881 135.993 130.217 135.993 134.555 135.993C134.369 140.539 134.142 143.962 133.374 148.193Z" fill="#FBC281"/>
</g>
<path d="M128.536 146.338H127.312C125.115 146.338 123.334 144.609 123.334 142.476C123.334 140.343 125.115 138.614 127.312 138.614H128.536C130.733 138.614 132.514 140.343 132.514 142.476C132.514 144.609 130.733 146.338 128.536 146.338Z" fill="#FFE5CB"/>
<path opacity="0.52" d="M139.971 141.176L139.982 145.207L139.996 150.658L141.304 151.334L142.387 151.892L136.405 151.904L137.35 151.411L138.792 150.662L138.784 147.457L138.767 141.178C137.058 141.118 135.658 139.851 135.464 138.222C135.44 138.016 135.37 137.622 135.37 137.226L135.937 126.732C135.937 126.732 137.002 126.332 139.45 126.332C142.102 126.332 142.51 126.936 142.51 126.936L143.269 137.63C143.278 137.758 143.286 137.887 143.278 138.014C143.182 139.735 141.752 141.108 139.971 141.176Z" fill="#50C7E7"/>
<mask id="mask20_42_2930" style="mask-type:luminance" maskUnits="userSpaceOnUse" x="135" y="126" width="8" height="2">
<path d="M135.983 126.739C136.024 126.614 137.73 126.37 139.247 126.333C140.764 126.295 141.947 126.597 142.511 126.927C142.752 127.068 140.848 127.322 139.368 127.365C136.967 127.434 135.952 126.835 135.983 126.739Z" fill="white"/>
</mask>
<g mask="url(#mask20_42_2930)">
<path opacity="0.52" d="M135.983 126.739C136.024 126.614 137.79 126.175 139.307 126.138C140.824 126.1 141.925 126.409 142.49 126.739C142.73 126.88 140.848 127.322 139.368 127.365C136.967 127.434 135.952 126.835 135.983 126.739Z" fill="#55C7E3"/>
</g>
<mask id="mask21_42_2930" style="mask-type:luminance" maskUnits="userSpaceOnUse" x="135" y="126" width="8" height="2">
<path d="M135.983 126.739C136.024 126.614 137.73 126.37 139.247 126.333C140.764 126.295 141.947 126.597 142.511 126.927C142.752 127.068 140.848 127.322 139.368 127.365C136.967 127.434 135.952 126.835 135.983 126.739Z" fill="white"/>
</mask>
<g mask="url(#mask21_42_2930)">
<path opacity="0.52" d="M138.194 128.412H137.197L136.744 125.829L138.194 125.611V128.412Z" fill="#B0DDD2"/>
</g>
<mask id="mask22_42_2930" style="mask-type:luminance" maskUnits="userSpaceOnUse" x="135" y="126" width="8" height="2">
<path d="M135.983 126.739C136.024 126.614 137.73 126.37 139.247 126.333C140.764 126.295 141.947 126.597 142.511 126.927C142.752 127.068 140.848 127.322 139.368 127.365C136.967 127.434 135.952 126.835 135.983 126.739Z" fill="white"/>
</mask>
<g mask="url(#mask22_42_2930)">
<path d="M140.746 128.412H139.372V125.611L141.591 125.725L140.746 128.412Z" fill="url(#paint0_radial_42_2930)"/>
</g>
<path d="M136.568 133.117L136.37 137.242C136.375 139.449 137.719 140.252 139.368 140.248C141.017 140.244 142.356 139.436 142.352 137.229L142.102 133.048L136.568 133.117Z" fill="#C07AA2"/>
<path d="M136.492 133.167C136.525 133.059 137.983 132.681 139.235 132.648C140.487 132.616 141.622 132.951 142.088 133.236C142.287 133.357 140.556 133.827 139.334 133.864C137.353 133.924 136.466 133.25 136.492 133.167Z" fill="#A56197"/>
<path opacity="0.22" d="M139.655 127.719C139.655 127.719 140.879 127.719 141.695 127.521L142.307 138.415C142.307 138.415 141.556 139.79 140.503 140.093L139.655 127.719Z" fill="white"/>
<path opacity="0.2" d="M137.002 127.719C137.002 127.719 136.186 136.038 136.39 137.821C136.594 139.603 138.215 140.093 138.215 140.093L138.634 127.719H137.002Z" fill="#DC6455"/>
<path opacity="0.2" d="M142.386 151.893L136.404 151.904L137.349 151.411L138.791 150.662L138.783 147.457C139.193 146.726 139.588 145.974 139.98 145.207L139.994 150.658L141.302 151.333L142.386 151.893Z" fill="#65A6C0"/>
<path d="M121.475 66.1028C124.026 70.9424 125.677 70.7379 124.848 72.5044C124.02 74.2708 119.642 71.9714 119.642 71.9714L121.475 66.1028Z" fill="#281D25"/>
<path d="M145.365 55.7497C144.859 56.54 143.803 57.8323 143.671 57.9925C143.803 57.859 144.804 56.8497 145.2 57.0847C145.623 57.3303 145.096 57.6827 143.831 59.3168C142.56 60.9508 134.041 61.2979 132.545 62.0989C131.049 62.8946 126.538 63.9038 125.416 64.55C124.591 65.0252 122.562 68.7472 121.506 70.7711C121.126 71.492 120.874 71.9993 120.841 72.0687C120.714 72.3304 117.458 69.4414 117.458 69.4414L117.073 66.0131C117.073 66.0131 118.404 63.263 119.515 61.4154C119.702 61.1003 119.927 60.828 120.175 60.5824C121.39 59.3702 123.227 58.7561 124.855 56.7589C126.808 54.3452 128.21 51.8034 128.925 52.9408C129.635 54.0836 127.457 56.8657 126.924 57.3303C126.39 57.7949 129.888 57.4798 132.533 55.6108C135.179 53.7418 143.897 53.2025 144.122 53.902C144.122 53.902 145.288 53.6617 145.189 54.671C145.189 54.671 145.904 54.9059 145.365 55.7497Z" fill="#F5BDA5"/>
<path d="M145.365 55.7497C144.859 56.54 143.803 57.8323 143.671 57.9925C143.803 57.859 144.804 56.8497 145.2 57.0847C145.624 57.3303 145.096 57.6827 143.831 59.3168C142.56 60.9508 134.041 61.2979 132.545 62.0989C131.049 62.8946 126.539 63.9038 125.417 64.55C124.592 65.0252 122.562 68.7472 121.506 70.7711C121.413 68.2186 122.188 65.6393 123.739 63.5781C124.218 62.9426 124.795 62.131 124.405 61.4368C124.047 60.8066 123.145 60.7693 122.403 60.7639C121.655 60.7586 120.912 60.6998 120.175 60.5824C121.391 59.3702 123.227 58.7561 124.855 56.7589C126.808 54.3452 128.211 51.8034 128.926 52.9408C129.635 54.0836 127.457 56.8657 126.924 57.3303C126.39 57.7949 129.888 57.4798 132.534 55.6108C135.179 53.7418 143.897 53.2025 144.122 53.902C144.122 53.902 145.288 53.6617 145.189 54.671C145.189 54.671 145.904 54.9059 145.365 55.7497Z" fill="#F09E87"/>
<path d="M122.26 73.172C121.825 72.8911 123.841 67.7465 123.841 67.7465C123.841 67.7465 119.507 63.9637 118.878 62.7312L117.883 67.4363L122.26 73.172Z" fill="white"/>
<path d="M118.879 62.7311C120.183 66.7404 122.251 72.199 124.848 72.5044C124.848 72.5044 121.918 79.9697 117.47 86.9155C113.283 93.4527 110.47 90.9445 106.189 88.9511C101.906 86.9576 86.988 76.4336 86.988 76.4336L83.8189 61.9002C83.8189 61.9002 86.1294 61.0896 88.8464 62.4604C91.5634 63.8317 95.2572 67.0533 98.8334 70.3657C102.409 73.6781 109.927 79.0881 109.927 79.0881C109.927 79.0881 112.471 75.4355 115.001 70.2563C116.75 66.672 118.879 62.7311 118.879 62.7311Z" fill="#3B2D3C"/>
<path d="M107.186 83.1235C107.543 81.3202 108.666 80.6009 110.018 79.3167C110.232 82.4293 111.187 85.4918 112.789 88.196" stroke="#281A29" stroke-miterlimit="10"/>
<path d="M84.0081 221.626C84.0081 221.626 82.7849 227.486 87.4066 229.41C87.4066 229.41 82.8476 232.163 79.8457 231.71C76.8438 231.258 74.09 231.451 74.09 231.451L74.2077 223.107L84.0081 221.626Z" fill="#DADCDE"/>
<path d="M102.451 239.513C102.681 238.773 103.029 236.723 102.258 236.131C100.494 234.779 98.4307 233.536 93.6551 231.029C91.6041 229.952 88.357 228.209 86.2983 227.182C81.4297 229.133 79.2011 228.194 73.9497 227.338L73.2814 238.56L78.5878 238.657L79.5553 235.933L83.6033 238.726C89.546 239.311 102.451 239.513 102.451 239.513Z" fill="#281D25"/>
<path d="M64.113 221.626C64.113 221.626 62.8898 227.486 67.5114 229.41C67.5114 229.41 62.9524 232.163 59.9505 231.71C56.9486 231.258 54.1948 231.451 54.1948 231.451L54.3125 223.107L64.113 221.626Z" fill="#DADCDE"/>
<path d="M82.5561 239.513C82.7855 238.773 83.1342 236.723 82.3625 236.131C80.5992 234.779 80.0267 234.501 75.251 231.994C73.2001 230.917 68.4618 228.208 66.4032 227.182C61.5346 229.133 59.306 228.194 54.0546 227.338L53.3863 238.56L58.6927 238.657L59.6602 235.933L63.7082 238.726C69.6509 239.311 82.5561 239.513 82.5561 239.513Z" fill="#3B2D3C"/>
<path d="M91.2796 154.644C90.6636 168.807 87.4076 224.761 87.4076 224.761H73.8386C73.8386 224.761 74.8374 177.87 74.1966 166.534C74.1867 166.351 74.1768 165.97 74.162 165.43C74.0426 160.7 73.8188 143.897 73.8391 143.477C73.9634 140.032 73.9436 137.344 73.8391 135.09C73.546 128.711 72.5769 131.635 72.199 125.092C72.0747 122.925 72.0153 120.363 72.0648 117.134L73.695 117.004L91.6476 115.594C91.6476 115.594 91.1652 118.432 91.6476 121.574C91.7422 122.187 91.8016 122.829 91.8412 123.543C92.0051 126.481 91.7966 124.928 91.9457 134.251C91.9506 134.526 91.9556 134.81 91.9506 135.1C92.0051 142.628 91.2796 154.644 91.2796 154.644Z" fill="#3B2D3C"/>
<path d="M73.5416 117.133L54.054 115.595C54.054 115.943 52.4172 122.829 52.4409 126.32C52.4409 127.584 52.4645 128.832 52.5052 129.914C52.6537 133.741 52.9458 143.213 53.2422 148.765C53.1669 150.503 52.9612 156.93 53.5029 166.536C54.142 177.871 53.141 224.762 53.141 224.762H67.2331C67.2331 224.762 70.8493 174.127 73.4344 151.365C73.6164 146.278 76.175 137.711 76.4126 132.626C76.934 121.452 73.3596 128.317 73.5416 117.133Z" fill="#3B2D3C"/>
<path d="M53.5205 132.658C56.7116 133.493 63.4711 134.984 71.3636 135.075C71.8558 135.08 72.3525 135.085 72.8448 135.09C74.2016 135.104 75.5485 135.114 76.8707 135.119C82.6859 135.147 87.9791 135.119 90.9568 135.099C90.9618 134.81 90.9568 134.525 90.9519 134.25C90.8028 124.927 91.0118 126.481 90.8474 123.542L74.7285 124.811H74.7235L71.2046 125.091L53.2218 126.505L53.5205 132.658Z" fill="#281D25"/>
<path d="M53.4298 78.2546C53.4298 78.2546 53.878 79.5597 54.5507 81.6957C63.5734 80.2101 75.5651 78.3843 84.6395 77.2149C85.3232 77.1267 86.0068 77.0424 86.6905 76.9607C86.702 76.8608 86.7141 76.761 86.7257 76.6616L84.9997 63.4115C84.9997 63.4115 80.679 61.0208 79.1918 59.8743L78.864 50.2308L66.6996 45.5406L65.7371 59.4845C65.7371 59.4845 56.7177 62.1966 52.893 64.7903C52.893 64.7903 54.9181 74.4466 53.4298 78.2546Z" fill="#F5BDA5"/>
<path d="M84.9992 63.4114C84.9992 63.4114 81.2647 61.6284 79.2077 60.2523L78.8634 50.2302L66.6991 45.54L66.4675 48.8973L67.65 55.9301L72.9999 62.4363C72.9999 62.4363 73.4432 62.6451 73.4041 63.0414C73.4025 62.721 68.6582 60.3067 65.7789 58.8708L65.7366 59.4838C65.7366 59.4838 56.7171 62.196 52.8924 64.7902C52.8924 64.7902 54.1536 70.8079 53.9517 75.216L86.4331 74.5181L84.9992 63.4114Z" fill="#F09E87"/>
<path d="M83.143 40.513C83.1166 41.032 84.1341 44.3594 84.3992 46.1088C84.6632 47.8533 83.9212 54.6597 83.5027 55.4997C82.1662 58.19 72.7733 59.9954 69.2417 55.677C68.9051 55.2642 65.8565 49.8142 64.586 47.2163C64.3088 46.6454 64.042 45.9208 63.7967 45.0968C63.6147 44.4854 63.4425 43.82 63.2847 43.1242C62.54 39.8156 62.1264 35.8303 62.3843 33.7515C62.4041 33.5672 62.4322 33.4001 62.4674 33.2463C63.5107 28.5209 74.7213 24.6606 80.0173 29.1852C80.6652 29.7438 81.2279 30.4268 81.6706 31.2545C81.9561 31.7906 82.2949 32.6936 82.5974 33.6644C82.7965 34.3154 82.9813 34.9978 83.1155 35.6173C83.3476 36.634 83.4455 37.4788 83.2893 37.749C82.8988 38.4224 83.1699 39.9945 83.143 40.513Z" fill="#F5BDA5"/>
<path d="M83.4933 34.7223C82.1926 35.3017 76.5837 34.2182 70.7977 34.0457C68.4805 33.9763 65.4995 35.0513 65.2559 35.5991C64.3951 37.521 66.7508 39.3115 67.2265 40.5568C67.9382 42.4189 67.0191 48.5001 67.0191 48.5001C67.0191 48.5001 65.8075 46.7427 65.5374 45.837C65.5286 45.8146 65.5231 45.7873 65.5143 45.7649C65.4621 45.5882 65.5886 45.9283 65.5143 45.7649C65.3862 45.4968 65.0254 44.7407 64.8406 44.5111C64.4039 43.9536 63.8374 43.4906 63.2841 43.1253C62.183 42.398 61.1116 42.0419 61.1116 42.0419C61.1116 42.0419 58.2137 38.1255 61.5615 34.2097C62.5416 33.0632 60.494 31.0463 63.8941 28.9733C70.6393 24.8599 75.5766 25.4238 78.3321 26.7865C82.2981 28.7469 83.3146 34.1493 83.4933 34.7223Z" fill="#864603"/>
<path d="M65.5144 45.7628C65.5144 45.7628 65.3433 42.153 61.6688 42.1514C57.9942 42.1498 59.2884 47.8166 63.3078 49.3294C65.6343 50.2052 66.4631 50.6318 66.4631 50.6318L65.5144 45.7628Z" fill="#F5BDA5"/>
<path d="M78.8189 39.193C78.8189 39.193 77.6419 40.0138 78.6621 42.1743C79.3848 43.7048 81.6827 46.1798 81.6827 46.1798C81.6827 46.1798 80.9028 46.5787 79.7159 47.3285C79.7159 47.3285 78.9729 45.844 78.325 44.2345C77.6771 42.6255 77.2426 40.1398 78.8189 39.193Z" fill="#CA5F55"/>
<path d="M72.627 43.662C72.627 43.662 73.2914 43.7597 73.9173 43.3037C73.9173 43.3037 73.711 44.6905 72.627 43.662Z" fill="#CA5F55"/>
<path d="M80.877 42.0568C80.877 42.0568 81.4539 42.1177 81.9885 41.9169C81.9885 41.9169 81.6283 43.0361 80.877 42.0568Z" fill="#CA5F55"/>
<path d="M64.2175 45.8045C64.2175 45.8045 63.7863 43.9157 61.9058 43.7256C60.0254 43.536 60.478 46.0544 62.2067 47.1886C63.9353 48.3228 64.1735 48.1129 64.1735 48.1129C64.1735 48.1129 62.936 47.1469 62.942 46.8324C62.9464 46.5697 64.2175 45.8045 64.2175 45.8045Z" fill="#C6706E"/>
<path d="M75.8709 38.1597C75.8709 38.1597 76.4731 37.2241 75.834 36.791C75.834 36.791 72.3344 37.0121 70.1316 39.7269C70.1316 39.7269 69.9705 40.1066 70.532 39.7536C71.093 39.4007 73.6038 38.0075 75.8709 38.1597Z" fill="#874823"/>
<path d="M79.6604 36.2928C79.6604 36.2928 79.5872 36.7601 79.7874 37.2583C79.7874 37.2583 81.5606 36.9075 82.4158 37.2594C82.4158 37.2594 82.4846 36.9614 82.1491 36.7692C81.8207 36.5807 80.9776 36.0638 79.6604 36.2928Z" fill="#874823"/>
<path d="M74.1807 49.2717C74.1807 49.2717 75.1559 49.6535 77.3938 49.1441C79.6312 48.6352 81.3137 47.4171 81.3137 47.4171C81.3137 47.4171 80.9056 52.1265 81.9418 52.7774C81.9418 52.7774 80.7235 53.839 78.0384 53.1485C74.2055 52.1628 74.1807 49.2717 74.1807 49.2717Z" fill="#913234"/>
<path d="M80.3666 49.7683L80.5167 48.2773C79.8342 48.6421 78.732 49.1478 77.4351 49.426C76.2449 49.6812 75.4248 49.6935 74.9227 49.6524C74.954 49.8398 74.9771 49.8724 75.0338 49.9974C75.1449 50.2414 76.5787 50.4577 78.0324 50.337C79.2897 50.2323 80.3666 49.7683 80.3666 49.7683Z" fill="white"/>
<path d="M79.8556 52.9291C78.8167 51.3164 76.1767 51.2369 75.2373 51.263C75.7889 51.8398 76.654 52.3973 78.0142 52.7225C78.7347 52.8955 79.3469 52.9457 79.8556 52.9291Z" fill="#EE4D4C"/>
<path d="M76.939 52.3796C77.2585 52.5099 77.6133 52.6269 78.0137 52.723C79.8182 53.155 80.9424 52.8255 81.4649 52.5804C80.9496 52.244 80.6751 51.8253 80.6751 51.8253C79.5515 52.4448 77.8707 52.3817 76.939 52.3796Z" fill="white"/>
<path d="M77.7095 57.2614C77.7095 57.2614 78.5879 57.6037 79.7253 57.3484C80.8627 57.0932 80.9914 56.6836 80.9914 56.6836C80.9914 56.6836 78.4691 56.5581 77.7095 57.2614Z" fill="#D57B72"/>
<path d="M75.1812 41.91C75.1674 42.3195 74.8143 42.641 74.3925 42.6277C73.9706 42.6143 73.6395 42.2715 73.6533 41.8619C73.667 41.4523 74.0201 41.1309 74.442 41.1442C74.8638 41.1576 75.1949 41.5004 75.1812 41.91Z" fill="#4B291E"/>
<path d="M82.4665 40.732C82.4527 41.1416 82.0996 41.463 81.6778 41.4497C81.2559 41.4363 80.9248 41.0935 80.9386 40.6839C80.9523 40.2743 81.3054 39.9529 81.7273 39.9662C82.1491 39.9796 82.4802 40.3224 82.4665 40.732Z" fill="#4B291E"/>
<path d="M71.5116 41.9831C71.5116 41.9831 67.0665 43.0671 66.0545 43.1884C65.0425 43.309 63.9683 43.5504 63.9683 43.5504L63.266 43.1707L70.9841 40.3197L71.5116 41.9831Z" fill="#1A2234"/>
<path opacity="0.09" d="M74.6581 44.173C75.3291 44.056 75.9462 43.7848 76.2306 43.4825C76.7487 42.932 76.7289 41.2253 76.7217 40.5824C76.7179 40.2801 76.7173 40.129 76.736 40.0041C76.7448 39.9448 76.758 39.8876 76.7756 39.8326L71.4159 40.7677L71.3763 41.2493C71.6463 41.92 72.3102 43.3768 72.9185 43.9594C73.1874 44.2173 73.903 44.3049 74.6581 44.173Z" fill="#7DCCF8"/>
<path opacity="0.09" d="M81.7647 42.9961C81.1041 43.1115 80.4392 43.0666 80.0701 42.8819C79.398 42.546 78.8139 40.9643 78.5934 40.3688C78.49 40.0885 78.4372 39.9491 78.3761 39.8402C78.347 39.7884 78.3145 39.7398 78.2793 39.6955L83.5549 38.7754L83.7612 39.2069C83.7485 39.9155 83.6501 41.4806 83.2942 42.2208C83.1375 42.5476 82.5083 42.8664 81.7647 42.9961Z" fill="#7DCCF8"/>
<path d="M77.3405 39.2106L70.9841 40.3192L70.8956 41.3946C70.8956 41.3946 71.6755 43.435 72.5137 44.2376C73.3519 45.0403 75.6772 44.6446 76.4934 43.7768C77.3102 42.9091 77.0704 40.5968 77.1215 40.2529C77.1727 39.909 77.6507 39.9245 77.6507 39.9245L77.3405 39.2106ZM76.664 40.1339C76.6464 40.2529 76.6469 40.396 76.6502 40.6839C76.6568 41.2953 76.6755 42.9187 76.1833 43.442C75.9127 43.7293 75.3258 43.9872 74.6878 44.0983C73.9695 44.2238 73.2891 44.1405 73.0334 43.8954C72.4548 43.3411 71.8234 41.9553 71.5666 41.3177L71.604 40.8596L76.7014 39.9705C76.6849 40.0233 76.6722 40.0773 76.664 40.1339Z" fill="#1A2234"/>
<path d="M83.0396 39.6282L83.7485 39.5972L83.5555 38.776L82.9824 38.7509L83.0396 39.6282Z" fill="#1A2234"/>
<path d="M83.8481 38.0753L77.2134 39.2325L77.149 39.9726C77.149 39.9726 77.621 39.8311 77.792 40.136C77.9636 40.4409 78.5675 42.6896 79.6439 43.2273C80.7202 43.7651 83.0423 43.3496 83.5401 42.3142C84.0384 41.2788 84.0378 39.1022 84.0378 39.1022L83.8481 38.0753ZM83.1754 42.1604C83.0214 42.4798 82.4076 42.7911 81.6816 42.9176C81.037 43.0298 80.388 42.9865 80.0278 42.8066C79.3716 42.4792 78.8013 40.9349 78.5862 40.3539C78.485 40.0805 78.4339 39.9443 78.3739 39.838C78.3453 39.7873 78.314 39.7403 78.2793 39.6965L83.4295 38.7984L83.6308 39.2191C83.6187 39.9101 83.5224 41.4379 83.1754 42.1604Z" fill="#1A2234"/>
<path d="M74.9914 69.3282L78.5807 73.5532L84.3717 60.9706L86.5298 61.7812C86.5298 61.7812 92.576 68.8572 92.8906 75.2246C93.2052 81.5921 93.225 95.9439 92.9352 109.612C92.6453 123.28 92.801 129.09 92.801 129.09C92.801 129.09 81.9715 132.503 70.7036 132.063C59.4358 131.624 51.5598 130.115 51.5598 130.115C51.5598 130.115 51.1907 123.543 51.5598 115.228C51.936 106.756 52.9122 93.9969 53.4985 86.1006C54.0848 78.2044 51.7226 61.7817 51.7226 61.7817L64.6167 59.0813L65.4192 64.9745L74.9914 69.3282Z" fill="#3B2D3C"/>
<path d="M81.5985 80.0547L79.8969 67.3882L80.1757 60.0521L84.3717 60.9706C84.3717 60.9706 89.584 71.4151 88.7452 75.4853L85.3463 78.3774L87.3114 81.6749L80.8494 98.6336L80.613 92.9577L81.5985 80.0547Z" fill="#4B4152"/>
<path d="M69.6256 77.6564L61.9762 75.6155C61.9762 75.6155 58.2522 68.3023 60.7673 59.7557L64.6168 59.0807L79.1984 72.7682L79.4563 65.9853L81.158 78.6518L82.5732 91.8496L80.4084 97.2302L66.1634 78.7511L69.6256 77.6564Z" fill="#4B4152"/>
<path d="M77.1485 68.8476L76.1283 65.705C76.1283 65.705 67.6814 63.1621 65.2597 58.8271L65.9802 56.5111L63.1582 59.808C63.1582 59.808 64.4897 69.1877 69.6636 73.1719L70.9759 70.8896L80.5772 95.2325L82.2162 68.4642L83.7623 71.2004C83.7623 71.2004 84.232 66.7602 82.9829 63.9887C81.7339 61.2173 79.2017 58.2172 79.2017 58.2172C79.2017 58.2172 79.5053 61.7817 79.1538 62.9405C78.903 63.7687 77.7381 65.3835 77.7381 65.3835L77.1485 68.8476Z" fill="white"/>
<path d="M75.7928 70.0229L71.511 71.8422L70.9759 70.889L74.3655 66.0387L75.7928 70.0229Z" fill="#B3B9C0"/>
<path d="M82.2157 68.4641L80.2632 65.3829L80.2533 69.6768L82.2157 70.1099V68.4641Z" fill="#B3B9C0"/>
<path d="M48.3978 95.083C52.4816 88.1218 58.0261 77.8359 58.0261 77.8359L51.7226 61.7806C51.7226 61.7806 49.8498 62.1107 47.8093 64.5078C45.7694 66.9054 38.8905 88.3808 33.9702 97.3226C30.2082 104.16 32.1629 110.092 34.3723 110.48C38.3246 111.175 41.0718 103.857 44.4312 103.868C46.0064 98.8755 44.4895 101.008 48.3978 95.083Z" fill="#3B2D3C"/>
<path d="M64.3792 116.549C69.5019 119.258 68.2726 111.125 68.2726 111.125C68.2726 111.125 64.0173 107.473 63.2467 110.034C62.4767 112.594 64.3792 116.549 64.3792 116.549Z" fill="#281D25"/>
<path d="M61.446 107.334C62.024 107.414 64.0492 108.365 65.9813 104.872C67.9135 101.379 68.7368 99.6823 70.5512 99.2679C72.3657 98.8541 77.5252 97.8048 77.5428 98.5502C77.561 99.2957 75.7097 100.456 74.2566 100.769C72.8035 101.081 72.5087 100.809 71.9488 101.474C71.3889 102.139 71.2146 102.889 71.2146 102.889C71.2146 102.889 73.5064 102.371 75.0552 102.895C76.604 103.42 80.2059 105.482 79.6416 105.961C79.0768 106.44 77.1535 106.297 75.79 105.489C74.4266 104.681 72.996 105.086 72.996 105.086C72.996 105.086 74.4491 105.613 75.8235 106.887C77.1985 108.161 77.8729 108.257 76.9197 108.549C75.9666 108.841 74.5162 108.408 73.6367 107.775C72.7573 107.142 72.0835 107.064 71.9026 107.535C71.7216 108.005 73.6934 108.427 74.4628 109.341C75.2323 110.256 75.4534 111.463 74.0988 111.028C72.7441 110.592 70.4231 109.899 69.8494 110.006C69.2758 110.112 68.3523 111.624 66.1028 113.912C63.8533 116.201 61.5147 114.762 60.3432 113.95L61.446 107.334Z" fill="#F5BDA5"/>
<path d="M61.325 112.558L63.9089 107.013C63.9089 107.013 65.5281 112.794 66.4631 114.721C66.4631 114.721 64.8214 115.489 62.9816 115.595C61.1419 115.7 61.325 112.558 61.325 112.558Z" fill="white"/>
<path d="M64.0997 106.514C63.1532 107.689 65.2113 115.643 65.2597 116.947C65.2597 116.947 55.8178 115.055 48.7547 114.304C40.5713 113.436 35.6109 111.898 34.0456 110.164C32.4797 108.43 36.7516 98.2966 40.4525 100.768C43.0947 102.532 47.5679 103.205 51.8776 104.211C58.3792 105.729 64.0997 106.514 64.0997 106.514Z" fill="#3B2D3C"/>
<path d="M48.7548 114.304C57.1989 116.29 65.2597 116.947 65.2597 116.947C65.2113 115.644 63.1532 107.69 64.0998 106.514C64.0998 106.514 56.9107 105.839 51.8777 104.211C47.5173 102.799 42.3786 102.623 42.5992 102.753C42.5992 102.753 41.3446 102.218 39.3558 105.879" stroke="#281A29" stroke-miterlimit="10"/>
<path d="M44.9114 102.84C43.4115 101.849 39.8486 101.618 38.4511 102.74" stroke="#281A29" stroke-miterlimit="10"/>
<path d="M84.5213 69.2428C84.6274 70.9922 84.4096 72.0896 83.1391 71.7473C81.6844 71.3564 79.2225 69.1344 78.3887 68.955C77.9075 68.8519 77.9862 67.9227 78.1369 67.1677C78.215 66.7602 78.3161 66.4073 78.3607 66.2497C78.3772 66.1953 78.3887 66.1627 78.3887 66.1627C80.3808 65.2282 83.402 64.1906 84.4541 64.9676C84.5322 65.0221 84.5938 65.076 84.6499 65.1305C85.327 65.8151 84.2583 66.3581 84.4541 68.4119C84.4822 68.6992 84.5042 68.9817 84.5213 69.2428Z" fill="#4B4152"/>
<path d="M76.0831 68.955C75.2493 69.1344 72.7876 71.3564 71.3328 71.7473C70.0629 72.0896 69.8445 70.9922 69.9507 69.2428C69.9677 68.9822 69.9897 68.6997 70.0178 68.4119C70.2301 66.1953 68.9656 65.7392 70.0178 64.9676C71.0694 64.1906 74.091 65.2282 76.0831 66.1627C76.0831 66.1627 76.0942 66.1953 76.1112 66.2497C76.2399 66.7004 76.8218 68.7969 76.0831 68.955Z" fill="#4B4152"/>
<path d="M84.5213 69.2428C84.6274 70.9922 84.4096 72.0896 83.1391 71.7473C81.6844 71.3564 79.2225 69.1344 78.3887 68.955C77.9075 68.8519 77.9862 67.9228 78.1369 67.1677C78.2601 67.1405 78.3832 67.1351 78.5119 67.157C78.859 67.2222 79.1274 67.4886 79.4409 67.6515C79.9893 67.9447 80.6437 67.934 81.2707 67.9121C81.9032 67.8902 82.5968 67.8416 83.0445 67.4123C83.33 67.1351 83.4641 66.7496 83.6434 66.4019C83.8838 65.9187 84.2309 65.484 84.6505 65.1305C85.3276 65.8151 84.2589 66.3582 84.4547 68.4119C84.4822 68.6992 84.5042 68.9817 84.5213 69.2428Z" fill="#3B2D3C"/>
<path d="M76.0831 68.9549C75.2493 69.1343 72.7875 71.3563 71.3328 71.7472C70.0628 72.0895 69.8445 70.9921 69.9506 69.2428C70.3032 69.3896 70.5661 69.6934 70.5831 70.2424C70.6167 71.704 72.9278 69.8024 73.0229 69.0906C73.1181 68.3787 73.0675 68.2431 74.349 67.7705C75.2944 67.4282 75.3841 66.8905 76.1117 66.2491C76.2399 66.7004 76.8218 68.7969 76.0831 68.9549Z" fill="#3B2D3C"/>
<path d="M79.0488 68.2538C79.1269 69.2316 77.5379 69.5034 76.6986 69.2967C75.8819 69.0901 76.2845 69.1557 76.0942 68.3948C76.0942 68.3782 76.0887 68.3569 76.0832 68.3403C75.8648 67.5201 76.0832 66.026 76.0832 66.026C76.9841 65.4065 77.7337 65.4557 78.3827 65.6079C78.4834 65.6297 78.562 65.6837 78.6291 65.7654C79.0207 66.2113 78.9817 67.4229 79.0488 68.2538Z" fill="#4B4152"/>
<path d="M78.6291 65.7659C78.7133 66.2929 78.7132 66.9337 78.7578 67.4389C78.8359 68.4166 77.2415 68.6885 76.4077 68.4818C76.2735 68.4492 76.1667 68.422 76.0941 68.3948C76.2844 69.1552 75.8813 69.09 76.6986 69.2967C77.5379 69.5033 79.1269 69.2315 79.0488 68.2538C78.9817 67.4229 79.0207 66.2112 78.6291 65.7659Z" fill="#3B2D3C"/>
<path d="M160.36 57.5348C160.36 58.6855 149.68 59.6184 136.507 59.6184C123.333 59.6184 112.654 58.6855 112.654 57.5348C112.654 56.384 124.079 57.4504 137.253 57.4504C150.427 57.4504 160.36 56.384 160.36 57.5348Z" fill="#3B2D3C"/>
<path d="M163.018 57.0179C163.018 57.5311 151.148 57.9471 136.507 57.9471C121.865 57.9471 109.996 57.5311 109.996 57.0179C109.996 56.5047 121.865 56.0887 136.507 56.0887C151.149 56.0887 163.018 56.5047 163.018 57.0179Z" fill="#6C6A6E"/>
<path d="M157.081 56.266C157.081 56.8961 147.87 57.4071 136.504 57.4071C125.144 57.4071 115.933 56.8966 115.933 56.266C115.933 56.2281 115.95 56.1191 115.983 55.9509C119.649 56.1464 124.713 56.266 130.359 56.266C141.725 56.266 149.089 54.7879 151.966 50.6371C152.632 49.6754 152.945 48.6159 152.917 47.5345C155.928 51.7564 157.081 55.9563 157.081 56.266Z" fill="#959BA9"/>
<path d="M152.917 47.535C152.945 48.6164 152.632 49.6758 151.966 50.6376C149.089 54.7884 141.725 56.2665 130.359 56.2665C124.713 56.2665 119.649 56.1469 115.983 55.9514C116.459 53.5228 120.684 38.6466 136.504 38.6466C144.563 38.6461 149.767 43.1012 152.917 47.535Z" fill="#B4BBCB"/>
<path opacity="0.37" d="M129.087 42.6324C121.512 45.2052 118.81 48.8978 120.908 52.2204C123.006 55.5435 129.302 46.2054 132.38 44.0149C135.458 41.8245 133.907 40.9952 129.087 42.6324Z" fill="white"/>
<path opacity="0.37" d="M137.826 40.9114C135.598 40.874 136.018 42.2912 138.396 42.8728C140.774 43.4548 140.053 40.9493 137.826 40.9114Z" fill="white"/>
<path d="M138.108 37.5867C138.108 38.4715 137.369 39.1892 136.458 39.1892C135.546 39.1892 134.807 38.4715 134.807 37.5867C134.807 36.7013 135.546 35.9841 136.458 35.9841C137.369 35.9841 138.108 36.7013 138.108 37.5867Z" fill="#B4BBCB"/>
<defs>
<radialGradient id="paint0_radial_42_2930" cx="0" cy="0" r="1" gradientUnits="userSpaceOnUse" gradientTransform="translate(141.37 124.475) scale(3.82612 4.76211)">
<stop stop-color="#FFFBD8"/>
<stop offset="0.8172" stop-color="white" stop-opacity="0"/>
</radialGradient>
</defs>
</svg>
